ISO-10303-21;
HEADER;
FILE_DESCRIPTION(('FreeCAD Model'),'2;1');
FILE_NAME('Open CASCADE Shape Model','2026-04-16T17:16:12',('Author'),(
    ''),'Open CASCADE STEP processor 7.9','FreeCAD','Unknown');
FILE_SCHEMA(('AUTOMOTIVE_DESIGN { 1 0 10303 214 1 1 1 1 }'));
ENDSEC;
DATA;
#1 = APPLICATION_PROTOCOL_DEFINITION('international standard',
  'automotive_design',2000,#2);
#2 = APPLICATION_CONTEXT(
  'core data for automotive mechanical design processes');
#3 = SHAPE_DEFINITION_REPRESENTATION(#4,#10);
#4 = PRODUCT_DEFINITION_SHAPE('','',#5);
#5 = PRODUCT_DEFINITION('design','',#6,#9);
#6 = PRODUCT_DEFINITION_FORMATION('','',#7);
#7 = PRODUCT('coil_001','coil_001','',(#8));
#8 = PRODUCT_CONTEXT('',#2,'mechanical');
#9 = PRODUCT_DEFINITION_CONTEXT('part definition',#2,'design');
#10 = ADVANCED_BREP_SHAPE_REPRESENTATION('',(#11,#15),#1515);
#11 = AXIS2_PLACEMENT_3D('',#12,#13,#14);
#12 = CARTESIAN_POINT('',(0.,0.,0.));
#13 = DIRECTION('',(0.,0.,1.));
#14 = DIRECTION('',(1.,0.,-0.));
#15 = MANIFOLD_SOLID_BREP('',#16);
#16 = CLOSED_SHELL('',(#17,#57,#113,#153,#186,#370,#471,#504,#526,#557,
    #588,#635,#657,#674,#686,#742,#766,#815,#839,#863,#894,#918,#942,
    #959,#990,#1015,#1039,#1064,#1088,#1113,#1137,#1155,#1186,#1217,
    #1229,#1246,#1268,#1299,#1311,#1333,#1364,#1395,#1424,#1441,#1463,
    #1487,#1501));
#17 = ADVANCED_FACE('',(#18),#52,.F.);
#18 = FACE_BOUND('',#19,.F.);
#19 = EDGE_LOOP('',(#20,#30,#38,#46));
#20 = ORIENTED_EDGE('',*,*,#21,.F.);
#21 = EDGE_CURVE('',#22,#24,#26,.T.);
#22 = VERTEX_POINT('',#23);
#23 = CARTESIAN_POINT('',(-22.5,-15.,-12.5));
#24 = VERTEX_POINT('',#25);
#25 = CARTESIAN_POINT('',(-22.5,-15.,-15.5));
#26 = LINE('',#27,#28);
#27 = CARTESIAN_POINT('',(-22.5,-15.,-12.5));
#28 = VECTOR('',#29,1.);
#29 = DIRECTION('',(0.,-6.661338147751E-16,-1.));
#30 = ORIENTED_EDGE('',*,*,#31,.F.);
#31 = EDGE_CURVE('',#32,#22,#34,.T.);
#32 = VERTEX_POINT('',#33);
#33 = CARTESIAN_POINT('',(-12.5,-15.,-12.5));
#34 = LINE('',#35,#36);
#35 = CARTESIAN_POINT('',(-12.5,-15.,-12.5));
#36 = VECTOR('',#37,1.);
#37 = DIRECTION('',(-1.,0.,0.));
#38 = ORIENTED_EDGE('',*,*,#39,.F.);
#39 = EDGE_CURVE('',#40,#32,#42,.T.);
#40 = VERTEX_POINT('',#41);
#41 = CARTESIAN_POINT('',(-12.5,-15.,-15.5));
#42 = LINE('',#43,#44);
#43 = CARTESIAN_POINT('',(-12.5,-15.,-17.5));
#44 = VECTOR('',#45,1.);
#45 = DIRECTION('',(0.,6.661338147751E-16,1.));
#46 = ORIENTED_EDGE('',*,*,#47,.T.);
#47 = EDGE_CURVE('',#40,#24,#48,.T.);
#48 = LINE('',#49,#50);
#49 = CARTESIAN_POINT('',(-12.5,-15.,-15.5));
#50 = VECTOR('',#51,1.);
#51 = DIRECTION('',(-1.,0.,0.));
#52 = PLANE('',#53);
#53 = AXIS2_PLACEMENT_3D('',#54,#55,#56);
#54 = CARTESIAN_POINT('',(-3.552713678801E-16,-15.,5.329070518201E-15));
#55 = DIRECTION('',(0.,1.,-6.74535502529E-16));
#56 = DIRECTION('',(0.,6.74535502529E-16,1.));
#57 = ADVANCED_FACE('',(#58),#108,.T.);
#58 = FACE_BOUND('',#59,.T.);
#59 = EDGE_LOOP('',(#60,#70,#79,#87,#95,#101,#102));
#60 = ORIENTED_EDGE('',*,*,#61,.T.);
#61 = EDGE_CURVE('',#62,#64,#66,.T.);
#62 = VERTEX_POINT('',#63);
#63 = CARTESIAN_POINT('',(-12.5,-10.,-12.5));
#64 = VERTEX_POINT('',#65);
#65 = CARTESIAN_POINT('',(-16.5,-10.,-12.5));
#66 = LINE('',#67,#68);
#67 = CARTESIAN_POINT('',(-12.5,-10.,-12.5));
#68 = VECTOR('',#69,1.);
#69 = DIRECTION('',(-1.,0.,0.));
#70 = ORIENTED_EDGE('',*,*,#71,.T.);
#71 = EDGE_CURVE('',#64,#72,#74,.T.);
#72 = VERTEX_POINT('',#73);
#73 = CARTESIAN_POINT('',(-17.5,-9.,-12.5));
#74 = CIRCLE('',#75,1.);
#75 = AXIS2_PLACEMENT_3D('',#76,#77,#78);
#76 = CARTESIAN_POINT('',(-16.5,-9.,-12.5));
#77 = DIRECTION('',(0.,-7.771561172376E-16,-1.));
#78 = DIRECTION('',(0.,1.,-7.771561172376E-16));
#79 = ORIENTED_EDGE('',*,*,#80,.F.);
#80 = EDGE_CURVE('',#81,#72,#83,.T.);
#81 = VERTEX_POINT('',#82);
#82 = CARTESIAN_POINT('',(-17.5,-1.110223024625E-14,-12.5));
#83 = LINE('',#84,#85);
#84 = CARTESIAN_POINT('',(-17.5,-5.,-12.5));
#85 = VECTOR('',#86,1.);
#86 = DIRECTION('',(0.,-1.,7.771561172376E-16));
#87 = ORIENTED_EDGE('',*,*,#88,.F.);
#88 = EDGE_CURVE('',#89,#81,#91,.T.);
#89 = VERTEX_POINT('',#90);
#90 = CARTESIAN_POINT('',(-22.5,-1.110223024625E-14,-12.5));
#91 = LINE('',#92,#93);
#92 = CARTESIAN_POINT('',(-22.5,-1.110223024625E-14,-12.5));
#93 = VECTOR('',#94,1.);
#94 = DIRECTION('',(1.,0.,0.));
#95 = ORIENTED_EDGE('',*,*,#96,.T.);
#96 = EDGE_CURVE('',#89,#22,#97,.T.);
#97 = LINE('',#98,#99);
#98 = CARTESIAN_POINT('',(-22.5,-1.110223024625E-14,-12.5));
#99 = VECTOR('',#100,1.);
#100 = DIRECTION('',(0.,-1.,8.881784197001E-16));
#101 = ORIENTED_EDGE('',*,*,#31,.F.);
#102 = ORIENTED_EDGE('',*,*,#103,.F.);
#103 = EDGE_CURVE('',#62,#32,#104,.T.);
#104 = LINE('',#105,#106);
#105 = CARTESIAN_POINT('',(-12.5,-10.,-12.5));
#106 = VECTOR('',#107,1.);
#107 = DIRECTION('',(0.,-1.,6.661338147751E-16));
#108 = PLANE('',#109);
#109 = AXIS2_PLACEMENT_3D('',#110,#111,#112);
#110 = CARTESIAN_POINT('',(-18.5,-8.5,-12.5));
#111 = DIRECTION('',(0.,5.551115123126E-16,1.));
#112 = DIRECTION('',(0.,-1.,5.551115123126E-16));
#113 = ADVANCED_FACE('',(#114),#148,.F.);
#114 = FACE_BOUND('',#115,.F.);
#115 = EDGE_LOOP('',(#116,#126,#134,#142));
#116 = ORIENTED_EDGE('',*,*,#117,.T.);
#117 = EDGE_CURVE('',#118,#120,#122,.T.);
#118 = VERTEX_POINT('',#119);
#119 = CARTESIAN_POINT('',(-12.5,-1.110223024625E-14,-12.5));
#120 = VERTEX_POINT('',#121);
#121 = CARTESIAN_POINT('',(-12.5,-4.,-12.5));
#122 = LINE('',#123,#124);
#123 = CARTESIAN_POINT('',(-12.5,-1.110223024625E-14,-12.5));
#124 = VECTOR('',#125,1.);
#125 = DIRECTION('',(0.,-1.,8.881784197001E-16));
#126 = ORIENTED_EDGE('',*,*,#127,.T.);
#127 = EDGE_CURVE('',#120,#128,#130,.T.);
#128 = VERTEX_POINT('',#129);
#129 = CARTESIAN_POINT('',(12.5,-4.,-12.5));
#130 = LINE('',#131,#132);
#131 = CARTESIAN_POINT('',(-12.5,-4.,-12.5));
#132 = VECTOR('',#133,1.);
#133 = DIRECTION('',(1.,0.,0.));
#134 = ORIENTED_EDGE('',*,*,#135,.F.);
#135 = EDGE_CURVE('',#136,#128,#138,.T.);
#136 = VERTEX_POINT('',#137);
#137 = CARTESIAN_POINT('',(12.5,-1.110223024625E-14,-12.5));
#138 = LINE('',#139,#140);
#139 = CARTESIAN_POINT('',(12.5,-1.110223024625E-14,-12.5));
#140 = VECTOR('',#141,1.);
#141 = DIRECTION('',(0.,-1.,8.881784197001E-16));
#142 = ORIENTED_EDGE('',*,*,#143,.F.);
#143 = EDGE_CURVE('',#118,#136,#144,.T.);
#144 = LINE('',#145,#146);
#145 = CARTESIAN_POINT('',(-12.5,-1.110223024625E-14,-12.5));
#146 = VECTOR('',#147,1.);
#147 = DIRECTION('',(1.,0.,0.));
#148 = PLANE('',#149);
#149 = AXIS2_PLACEMENT_3D('',#150,#151,#152);
#150 = CARTESIAN_POINT('',(-12.5,-1.110223024625E-14,-12.5));
#151 = DIRECTION('',(0.,8.881784197001E-16,1.));
#152 = DIRECTION('',(1.,0.,0.));
#153 = ADVANCED_FACE('',(#154),#181,.T.);
#154 = FACE_BOUND('',#155,.F.);
#155 = EDGE_LOOP('',(#156,#165,#173,#180));
#156 = ORIENTED_EDGE('',*,*,#157,.T.);
#157 = EDGE_CURVE('',#120,#158,#160,.T.);
#158 = VERTEX_POINT('',#159);
#159 = CARTESIAN_POINT('',(-12.5,-5.,-11.5));
#160 = CIRCLE('',#161,1.);
#161 = AXIS2_PLACEMENT_3D('',#162,#163,#164);
#162 = CARTESIAN_POINT('',(-12.5,-4.,-11.5));
#163 = DIRECTION('',(-1.,0.,0.));
#164 = DIRECTION('',(0.,-1.,3.330669073875E-16));
#165 = ORIENTED_EDGE('',*,*,#166,.T.);
#166 = EDGE_CURVE('',#158,#167,#169,.T.);
#167 = VERTEX_POINT('',#168);
#168 = CARTESIAN_POINT('',(12.5,-5.,-11.5));
#169 = LINE('',#170,#171);
#170 = CARTESIAN_POINT('',(-12.5,-5.,-11.5));
#171 = VECTOR('',#172,1.);
#172 = DIRECTION('',(1.,0.,0.));
#173 = ORIENTED_EDGE('',*,*,#174,.F.);
#174 = EDGE_CURVE('',#128,#167,#175,.T.);
#175 = CIRCLE('',#176,1.);
#176 = AXIS2_PLACEMENT_3D('',#177,#178,#179);
#177 = CARTESIAN_POINT('',(12.5,-4.,-11.5));
#178 = DIRECTION('',(-1.,0.,0.));
#179 = DIRECTION('',(0.,-1.,3.330669073875E-16));
#180 = ORIENTED_EDGE('',*,*,#127,.F.);
#181 = CYLINDRICAL_SURFACE('',#182,1.);
#182 = AXIS2_PLACEMENT_3D('',#183,#184,#185);
#183 = CARTESIAN_POINT('',(-12.5,-4.,-11.5));
#184 = DIRECTION('',(1.,0.,0.));
#185 = DIRECTION('',(0.,-8.881784197001E-16,-1.));
#186 = ADVANCED_FACE('',(#187,#331),#365,.T.);
#187 = FACE_BOUND('',#188,.T.);
#188 = EDGE_LOOP('',(#189,#199,#205,#206,#214,#222,#230,#238,#246,#254,
    #262,#270,#278,#286,#294,#302,#310,#318,#324,#325));
#189 = ORIENTED_EDGE('',*,*,#190,.F.);
#190 = EDGE_CURVE('',#191,#193,#195,.T.);
#191 = VERTEX_POINT('',#192);
#192 = CARTESIAN_POINT('',(-22.5,-1.554312234475E-14,-17.5));
#193 = VERTEX_POINT('',#194);
#194 = CARTESIAN_POINT('',(-12.5,-1.554312234475E-14,-17.5));
#195 = LINE('',#196,#197);
#196 = CARTESIAN_POINT('',(-17.5,-1.554312234475E-14,-17.5));
#197 = VECTOR('',#198,1.);
#198 = DIRECTION('',(1.,0.,0.));
#199 = ORIENTED_EDGE('',*,*,#200,.T.);
#200 = EDGE_CURVE('',#191,#89,#201,.T.);
#201 = LINE('',#202,#203);
#202 = CARTESIAN_POINT('',(-22.5,-1.554312234475E-14,-17.5));
#203 = VECTOR('',#204,1.);
#204 = DIRECTION('',(0.,8.881784197001E-16,1.));
#205 = ORIENTED_EDGE('',*,*,#88,.T.);
#206 = ORIENTED_EDGE('',*,*,#207,.F.);
#207 = EDGE_CURVE('',#208,#81,#210,.T.);
#208 = VERTEX_POINT('',#209);
#209 = CARTESIAN_POINT('',(-17.5,1.110223024625E-14,12.5));
#210 = LINE('',#211,#212);
#211 = CARTESIAN_POINT('',(-17.5,1.110223024625E-14,12.5));
#212 = VECTOR('',#213,1.);
#213 = DIRECTION('',(0.,-8.881784197001E-16,-1.));
#214 = ORIENTED_EDGE('',*,*,#215,.F.);
#215 = EDGE_CURVE('',#216,#208,#218,.T.);
#216 = VERTEX_POINT('',#217);
#217 = CARTESIAN_POINT('',(-22.5,1.110223024625E-14,12.5));
#218 = LINE('',#219,#220);
#219 = CARTESIAN_POINT('',(-22.5,1.110223024625E-14,12.5));
#220 = VECTOR('',#221,1.);
#221 = DIRECTION('',(1.,0.,0.));
#222 = ORIENTED_EDGE('',*,*,#223,.F.);
#223 = EDGE_CURVE('',#224,#216,#226,.T.);
#224 = VERTEX_POINT('',#225);
#225 = CARTESIAN_POINT('',(-22.5,1.554312234475E-14,17.5));
#226 = LINE('',#227,#228);
#227 = CARTESIAN_POINT('',(-22.5,1.554312234475E-14,17.5));
#228 = VECTOR('',#229,1.);
#229 = DIRECTION('',(0.,-8.881784197001E-16,-1.));
#230 = ORIENTED_EDGE('',*,*,#231,.F.);
#231 = EDGE_CURVE('',#232,#224,#234,.T.);
#232 = VERTEX_POINT('',#233);
#233 = CARTESIAN_POINT('',(-12.5,1.554312234475E-14,17.5));
#234 = LINE('',#235,#236);
#235 = CARTESIAN_POINT('',(-17.5,1.554312234475E-14,17.5));
#236 = VECTOR('',#237,1.);
#237 = DIRECTION('',(-1.,0.,0.));
#238 = ORIENTED_EDGE('',*,*,#239,.F.);
#239 = EDGE_CURVE('',#240,#232,#242,.T.);
#240 = VERTEX_POINT('',#241);
#241 = CARTESIAN_POINT('',(-12.5,1.110223024625E-14,12.5));
#242 = LINE('',#243,#244);
#243 = CARTESIAN_POINT('',(-12.5,1.110223024625E-14,12.5));
#244 = VECTOR('',#245,1.);
#245 = DIRECTION('',(0.,8.881784197001E-16,1.));
#246 = ORIENTED_EDGE('',*,*,#247,.F.);
#247 = EDGE_CURVE('',#248,#240,#250,.T.);
#248 = VERTEX_POINT('',#249);
#249 = CARTESIAN_POINT('',(12.5,1.110223024625E-14,12.5));
#250 = LINE('',#251,#252);
#251 = CARTESIAN_POINT('',(12.5,1.110223024625E-14,12.5));
#252 = VECTOR('',#253,1.);
#253 = DIRECTION('',(-1.,0.,0.));
#254 = ORIENTED_EDGE('',*,*,#255,.T.);
#255 = EDGE_CURVE('',#248,#256,#258,.T.);
#256 = VERTEX_POINT('',#257);
#257 = CARTESIAN_POINT('',(12.5,1.554312234475E-14,17.5));
#258 = LINE('',#259,#260);
#259 = CARTESIAN_POINT('',(12.5,1.110223024625E-14,12.5));
#260 = VECTOR('',#261,1.);
#261 = DIRECTION('',(0.,8.881784197001E-16,1.));
#262 = ORIENTED_EDGE('',*,*,#263,.T.);
#263 = EDGE_CURVE('',#256,#264,#266,.T.);
#264 = VERTEX_POINT('',#265);
#265 = CARTESIAN_POINT('',(22.5,1.554312234475E-14,17.5));
#266 = LINE('',#267,#268);
#267 = CARTESIAN_POINT('',(12.5,1.554312234475E-14,17.5));
#268 = VECTOR('',#269,1.);
#269 = DIRECTION('',(1.,0.,0.));
#270 = ORIENTED_EDGE('',*,*,#271,.T.);
#271 = EDGE_CURVE('',#264,#272,#274,.T.);
#272 = VERTEX_POINT('',#273);
#273 = CARTESIAN_POINT('',(22.5,1.110223024625E-14,12.5));
#274 = LINE('',#275,#276);
#275 = CARTESIAN_POINT('',(22.5,1.554312234475E-14,17.5));
#276 = VECTOR('',#277,1.);
#277 = DIRECTION('',(0.,-8.881784197001E-16,-1.));
#278 = ORIENTED_EDGE('',*,*,#279,.T.);
#279 = EDGE_CURVE('',#272,#280,#282,.T.);
#280 = VERTEX_POINT('',#281);
#281 = CARTESIAN_POINT('',(17.5,1.110223024625E-14,12.5));
#282 = LINE('',#283,#284);
#283 = CARTESIAN_POINT('',(22.5,1.110223024625E-14,12.5));
#284 = VECTOR('',#285,1.);
#285 = DIRECTION('',(-1.,0.,0.));
#286 = ORIENTED_EDGE('',*,*,#287,.T.);
#287 = EDGE_CURVE('',#280,#288,#290,.T.);
#288 = VERTEX_POINT('',#289);
#289 = CARTESIAN_POINT('',(17.5,-1.110223024625E-14,-12.5));
#290 = LINE('',#291,#292);
#291 = CARTESIAN_POINT('',(17.5,1.110223024625E-14,12.5));
#292 = VECTOR('',#293,1.);
#293 = DIRECTION('',(0.,-8.881784197001E-16,-1.));
#294 = ORIENTED_EDGE('',*,*,#295,.T.);
#295 = EDGE_CURVE('',#288,#296,#298,.T.);
#296 = VERTEX_POINT('',#297);
#297 = CARTESIAN_POINT('',(22.5,-1.110223024625E-14,-12.5));
#298 = LINE('',#299,#300);
#299 = CARTESIAN_POINT('',(17.5,-1.110223024625E-14,-12.5));
#300 = VECTOR('',#301,1.);
#301 = DIRECTION('',(1.,0.,0.));
#302 = ORIENTED_EDGE('',*,*,#303,.T.);
#303 = EDGE_CURVE('',#296,#304,#306,.T.);
#304 = VERTEX_POINT('',#305);
#305 = CARTESIAN_POINT('',(22.5,-1.554312234475E-14,-17.5));
#306 = LINE('',#307,#308);
#307 = CARTESIAN_POINT('',(22.5,-1.110223024625E-14,-12.5));
#308 = VECTOR('',#309,1.);
#309 = DIRECTION('',(0.,-8.881784197001E-16,-1.));
#310 = ORIENTED_EDGE('',*,*,#311,.T.);
#311 = EDGE_CURVE('',#304,#312,#314,.T.);
#312 = VERTEX_POINT('',#313);
#313 = CARTESIAN_POINT('',(12.5,-1.554312234475E-14,-17.5));
#314 = LINE('',#315,#316);
#315 = CARTESIAN_POINT('',(22.5,-1.554312234475E-14,-17.5));
#316 = VECTOR('',#317,1.);
#317 = DIRECTION('',(-1.,0.,0.));
#318 = ORIENTED_EDGE('',*,*,#319,.T.);
#319 = EDGE_CURVE('',#312,#136,#320,.T.);
#320 = LINE('',#321,#322);
#321 = CARTESIAN_POINT('',(12.5,-1.554312234475E-14,-17.5));
#322 = VECTOR('',#323,1.);
#323 = DIRECTION('',(0.,8.881784197001E-16,1.));
#324 = ORIENTED_EDGE('',*,*,#143,.F.);
#325 = ORIENTED_EDGE('',*,*,#326,.F.);
#326 = EDGE_CURVE('',#193,#118,#327,.T.);
#327 = LINE('',#328,#329);
#328 = CARTESIAN_POINT('',(-12.5,-1.554312234475E-14,-17.5));
#329 = VECTOR('',#330,1.);
#330 = DIRECTION('',(0.,8.881784197001E-16,1.));
#331 = FACE_BOUND('',#332,.T.);
#332 = EDGE_LOOP('',(#333,#343,#351,#359));
#333 = ORIENTED_EDGE('',*,*,#334,.F.);
#334 = EDGE_CURVE('',#335,#337,#339,.T.);
#335 = VERTEX_POINT('',#336);
#336 = CARTESIAN_POINT('',(-5.5,-3.608224830032E-15,-5.5));
#337 = VERTEX_POINT('',#338);
#338 = CARTESIAN_POINT('',(-5.5,3.608224830032E-15,5.5));
#339 = LINE('',#340,#341);
#340 = CARTESIAN_POINT('',(-5.5,1.804112415016E-15,2.75));
#341 = VECTOR('',#342,1.);
#342 = DIRECTION('',(0.,6.661338147751E-16,1.));
#343 = ORIENTED_EDGE('',*,*,#344,.F.);
#344 = EDGE_CURVE('',#345,#335,#347,.T.);
#345 = VERTEX_POINT('',#346);
#346 = CARTESIAN_POINT('',(5.5,-3.608224830032E-15,-5.5));
#347 = LINE('',#348,#349);
#348 = CARTESIAN_POINT('',(-2.75,-3.635980405647E-15,-5.5));
#349 = VECTOR('',#350,1.);
#350 = DIRECTION('',(-1.,0.,0.));
#351 = ORIENTED_EDGE('',*,*,#352,.F.);
#352 = EDGE_CURVE('',#353,#345,#355,.T.);
#353 = VERTEX_POINT('',#354);
#354 = CARTESIAN_POINT('',(5.5,3.608224830032E-15,5.5));
#355 = LINE('',#356,#357);
#356 = CARTESIAN_POINT('',(5.5,-1.804112415016E-15,-2.75));
#357 = VECTOR('',#358,1.);
#358 = DIRECTION('',(0.,-6.661338147751E-16,-1.));
#359 = ORIENTED_EDGE('',*,*,#360,.F.);
#360 = EDGE_CURVE('',#337,#353,#361,.T.);
#361 = LINE('',#362,#363);
#362 = CARTESIAN_POINT('',(2.75,3.635980405647E-15,5.5));
#363 = VECTOR('',#364,1.);
#364 = DIRECTION('',(1.,0.,0.));
#365 = PLANE('',#366);
#366 = AXIS2_PLACEMENT_3D('',#367,#368,#369);
#367 = CARTESIAN_POINT('',(-8.526512829121E-16,1.262177448354E-31,
    1.42108547152E-16));
#368 = DIRECTION('',(0.,1.,-6.661338147751E-16));
#369 = DIRECTION('',(0.,6.661338147751E-16,1.));
#370 = ADVANCED_FACE('',(#371,#396),#466,.F.);
#371 = FACE_BOUND('',#372,.F.);
#372 = EDGE_LOOP('',(#373,#381,#389,#395));
#373 = ORIENTED_EDGE('',*,*,#374,.T.);
#374 = EDGE_CURVE('',#158,#375,#377,.T.);
#375 = VERTEX_POINT('',#376);
#376 = CARTESIAN_POINT('',(-12.5,-5.,11.5));
#377 = LINE('',#378,#379);
#378 = CARTESIAN_POINT('',(-12.5,-5.,12.5));
#379 = VECTOR('',#380,1.);
#380 = DIRECTION('',(0.,7.771561172376E-16,1.));
#381 = ORIENTED_EDGE('',*,*,#382,.F.);
#382 = EDGE_CURVE('',#383,#375,#385,.T.);
#383 = VERTEX_POINT('',#384);
#384 = CARTESIAN_POINT('',(12.5,-5.,11.5));
#385 = LINE('',#386,#387);
#386 = CARTESIAN_POINT('',(12.5,-5.,11.5));
#387 = VECTOR('',#388,1.);
#388 = DIRECTION('',(-1.,0.,0.));
#389 = ORIENTED_EDGE('',*,*,#390,.F.);
#390 = EDGE_CURVE('',#167,#383,#391,.T.);
#391 = LINE('',#392,#393);
#392 = CARTESIAN_POINT('',(12.5,-5.,-17.5));
#393 = VECTOR('',#394,1.);
#394 = DIRECTION('',(0.,7.771561172376E-16,1.));
#395 = ORIENTED_EDGE('',*,*,#166,.F.);
#396 = FACE_BOUND('',#397,.F.);
#397 = EDGE_LOOP('',(#398,#408,#417,#425,#434,#442,#451,#459));
#398 = ORIENTED_EDGE('',*,*,#399,.F.);
#399 = EDGE_CURVE('',#400,#402,#404,.T.);
#400 = VERTEX_POINT('',#401);
#401 = CARTESIAN_POINT('',(9.5,-5.,4.75));
#402 = VERTEX_POINT('',#403);
#403 = CARTESIAN_POINT('',(9.5,-5.,-4.75));
#404 = LINE('',#405,#406);
#405 = CARTESIAN_POINT('',(9.5,-5.,4.75));
#406 = VECTOR('',#407,1.);
#407 = DIRECTION('',(1.869849304632E-16,-5.551115123126E-16,-1.));
#408 = ORIENTED_EDGE('',*,*,#409,.T.);
#409 = EDGE_CURVE('',#400,#410,#412,.T.);
#410 = VERTEX_POINT('',#411);
#411 = CARTESIAN_POINT('',(4.75,-5.,9.5));
#412 = CIRCLE('',#413,4.75);
#413 = AXIS2_PLACEMENT_3D('',#414,#415,#416);
#414 = CARTESIAN_POINT('',(4.75,-5.,4.75));
#415 = DIRECTION('',(0.,-1.,5.551115123126E-16));
#416 = DIRECTION('',(1.,0.,0.));
#417 = ORIENTED_EDGE('',*,*,#418,.F.);
#418 = EDGE_CURVE('',#419,#410,#421,.T.);
#419 = VERTEX_POINT('',#420);
#420 = CARTESIAN_POINT('',(-4.75,-5.,9.5));
#421 = LINE('',#422,#423);
#422 = CARTESIAN_POINT('',(-4.75,-5.,9.5));
#423 = VECTOR('',#424,1.);
#424 = DIRECTION('',(1.,0.,0.));
#425 = ORIENTED_EDGE('',*,*,#426,.T.);
#426 = EDGE_CURVE('',#419,#427,#429,.T.);
#427 = VERTEX_POINT('',#428);
#428 = CARTESIAN_POINT('',(-9.5,-5.,4.75));
#429 = CIRCLE('',#430,4.75);
#430 = AXIS2_PLACEMENT_3D('',#431,#432,#433);
#431 = CARTESIAN_POINT('',(-4.75,-5.,4.75));
#432 = DIRECTION('',(0.,-1.,5.551115123126E-16));
#433 = DIRECTION('',(1.,0.,0.));
#434 = ORIENTED_EDGE('',*,*,#435,.T.);
#435 = EDGE_CURVE('',#427,#436,#438,.T.);
#436 = VERTEX_POINT('',#437);
#437 = CARTESIAN_POINT('',(-9.5,-5.,-4.75));
#438 = LINE('',#439,#440);
#439 = CARTESIAN_POINT('',(-9.5,-5.,4.75));
#440 = VECTOR('',#441,1.);
#441 = DIRECTION('',(0.,-5.551115123126E-16,-1.));
#442 = ORIENTED_EDGE('',*,*,#443,.T.);
#443 = EDGE_CURVE('',#436,#444,#446,.T.);
#444 = VERTEX_POINT('',#445);
#445 = CARTESIAN_POINT('',(-4.75,-5.,-9.5));
#446 = CIRCLE('',#447,4.75);
#447 = AXIS2_PLACEMENT_3D('',#448,#449,#450);
#448 = CARTESIAN_POINT('',(-4.75,-5.,-4.75));
#449 = DIRECTION('',(0.,-1.,5.551115123126E-16));
#450 = DIRECTION('',(1.,0.,0.));
#451 = ORIENTED_EDGE('',*,*,#452,.T.);
#452 = EDGE_CURVE('',#444,#453,#455,.T.);
#453 = VERTEX_POINT('',#454);
#454 = CARTESIAN_POINT('',(4.75,-5.,-9.5));
#455 = LINE('',#456,#457);
#456 = CARTESIAN_POINT('',(-4.75,-5.,-9.5));
#457 = VECTOR('',#458,1.);
#458 = DIRECTION('',(1.,0.,0.));
#459 = ORIENTED_EDGE('',*,*,#460,.T.);
#460 = EDGE_CURVE('',#453,#402,#461,.T.);
#461 = CIRCLE('',#462,4.75);
#462 = AXIS2_PLACEMENT_3D('',#463,#464,#465);
#463 = CARTESIAN_POINT('',(4.75,-5.,-4.75));
#464 = DIRECTION('',(0.,-1.,5.551115123126E-16));
#465 = DIRECTION('',(1.,0.,0.));
#466 = PLANE('',#467);
#467 = AXIS2_PLACEMENT_3D('',#468,#469,#470);
#468 = CARTESIAN_POINT('',(-8.526512829121E-16,-5.,4.440892098501E-15));
#469 = DIRECTION('',(0.,1.,-6.661338147751E-16));
#470 = DIRECTION('',(0.,6.661338147751E-16,1.));
#471 = ADVANCED_FACE('',(#472),#499,.T.);
#472 = FACE_BOUND('',#473,.T.);
#473 = EDGE_LOOP('',(#474,#483,#491,#498));
#474 = ORIENTED_EDGE('',*,*,#475,.T.);
#475 = EDGE_CURVE('',#383,#476,#478,.T.);
#476 = VERTEX_POINT('',#477);
#477 = CARTESIAN_POINT('',(12.5,-4.,12.5));
#478 = CIRCLE('',#479,1.);
#479 = AXIS2_PLACEMENT_3D('',#480,#481,#482);
#480 = CARTESIAN_POINT('',(12.5,-4.,11.5));
#481 = DIRECTION('',(-1.,0.,0.));
#482 = DIRECTION('',(0.,1.,-3.330669073875E-16));
#483 = ORIENTED_EDGE('',*,*,#484,.T.);
#484 = EDGE_CURVE('',#476,#485,#487,.T.);
#485 = VERTEX_POINT('',#486);
#486 = CARTESIAN_POINT('',(-12.5,-4.,12.5));
#487 = LINE('',#488,#489);
#488 = CARTESIAN_POINT('',(12.5,-4.,12.5));
#489 = VECTOR('',#490,1.);
#490 = DIRECTION('',(-1.,0.,0.));
#491 = ORIENTED_EDGE('',*,*,#492,.F.);
#492 = EDGE_CURVE('',#375,#485,#493,.T.);
#493 = CIRCLE('',#494,1.);
#494 = AXIS2_PLACEMENT_3D('',#495,#496,#497);
#495 = CARTESIAN_POINT('',(-12.5,-4.,11.5));
#496 = DIRECTION('',(-1.,0.,0.));
#497 = DIRECTION('',(0.,1.,-3.330669073875E-16));
#498 = ORIENTED_EDGE('',*,*,#382,.F.);
#499 = CYLINDRICAL_SURFACE('',#500,1.);
#500 = AXIS2_PLACEMENT_3D('',#501,#502,#503);
#501 = CARTESIAN_POINT('',(12.5,-4.,11.5));
#502 = DIRECTION('',(-1.,0.,0.));
#503 = DIRECTION('',(0.,-1.,6.661338147751E-16));
#504 = ADVANCED_FACE('',(#505),#521,.F.);
#505 = FACE_BOUND('',#506,.F.);
#506 = EDGE_LOOP('',(#507,#513,#514,#520));
#507 = ORIENTED_EDGE('',*,*,#508,.T.);
#508 = EDGE_CURVE('',#248,#476,#509,.T.);
#509 = LINE('',#510,#511);
#510 = CARTESIAN_POINT('',(12.5,1.110223024625E-14,12.5));
#511 = VECTOR('',#512,1.);
#512 = DIRECTION('',(0.,-1.,8.881784197001E-16));
#513 = ORIENTED_EDGE('',*,*,#484,.T.);
#514 = ORIENTED_EDGE('',*,*,#515,.F.);
#515 = EDGE_CURVE('',#240,#485,#516,.T.);
#516 = LINE('',#517,#518);
#517 = CARTESIAN_POINT('',(-12.5,1.110223024625E-14,12.5));
#518 = VECTOR('',#519,1.);
#519 = DIRECTION('',(0.,-1.,8.881784197001E-16));
#520 = ORIENTED_EDGE('',*,*,#247,.F.);
#521 = PLANE('',#522);
#522 = AXIS2_PLACEMENT_3D('',#523,#524,#525);
#523 = CARTESIAN_POINT('',(12.5,1.110223024625E-14,12.5));
#524 = DIRECTION('',(0.,-8.881784197001E-16,-1.));
#525 = DIRECTION('',(-1.,0.,0.));
#526 = ADVANCED_FACE('',(#527),#552,.F.);
#527 = FACE_BOUND('',#528,.F.);
#528 = EDGE_LOOP('',(#529,#539,#545,#546));
#529 = ORIENTED_EDGE('',*,*,#530,.T.);
#530 = EDGE_CURVE('',#531,#533,#535,.T.);
#531 = VERTEX_POINT('',#532);
#532 = CARTESIAN_POINT('',(-16.5,-10.,12.5));
#533 = VERTEX_POINT('',#534);
#534 = CARTESIAN_POINT('',(-12.5,-10.,12.5));
#535 = LINE('',#536,#537);
#536 = CARTESIAN_POINT('',(-22.5,-10.,12.5));
#537 = VECTOR('',#538,1.);
#538 = DIRECTION('',(1.,0.,0.));
#539 = ORIENTED_EDGE('',*,*,#540,.F.);
#540 = EDGE_CURVE('',#62,#533,#541,.T.);
#541 = LINE('',#542,#543);
#542 = CARTESIAN_POINT('',(-12.5,-10.,-17.5));
#543 = VECTOR('',#544,1.);
#544 = DIRECTION('',(0.,7.771561172376E-16,1.));
#545 = ORIENTED_EDGE('',*,*,#61,.T.);
#546 = ORIENTED_EDGE('',*,*,#547,.F.);
#547 = EDGE_CURVE('',#531,#64,#548,.T.);
#548 = LINE('',#549,#550);
#549 = CARTESIAN_POINT('',(-16.5,-10.,12.5));
#550 = VECTOR('',#551,1.);
#551 = DIRECTION('',(0.,-7.771561172376E-16,-1.));
#552 = PLANE('',#553);
#553 = AXIS2_PLACEMENT_3D('',#554,#555,#556);
#554 = CARTESIAN_POINT('',(0.,-10.,7.993605777301E-15));
#555 = DIRECTION('',(0.,1.,-5.551115123126E-16));
#556 = DIRECTION('',(0.,5.551115123126E-16,1.));
#557 = ADVANCED_FACE('',(#558),#583,.T.);
#558 = FACE_BOUND('',#559,.T.);
#559 = EDGE_LOOP('',(#560,#568,#569,#577));
#560 = ORIENTED_EDGE('',*,*,#561,.F.);
#561 = EDGE_CURVE('',#232,#562,#564,.T.);
#562 = VERTEX_POINT('',#563);
#563 = CARTESIAN_POINT('',(-12.5,-15.,17.5));
#564 = LINE('',#565,#566);
#565 = CARTESIAN_POINT('',(-12.5,1.554312234475E-14,17.5));
#566 = VECTOR('',#567,1.);
#567 = DIRECTION('',(0.,-1.,8.881784197001E-16));
#568 = ORIENTED_EDGE('',*,*,#231,.T.);
#569 = ORIENTED_EDGE('',*,*,#570,.T.);
#570 = EDGE_CURVE('',#224,#571,#573,.T.);
#571 = VERTEX_POINT('',#572);
#572 = CARTESIAN_POINT('',(-22.5,-15.,17.5));
#573 = LINE('',#574,#575);
#574 = CARTESIAN_POINT('',(-22.5,-5.,17.5));
#575 = VECTOR('',#576,1.);
#576 = DIRECTION('',(0.,-1.,7.771561172376E-16));
#577 = ORIENTED_EDGE('',*,*,#578,.F.);
#578 = EDGE_CURVE('',#562,#571,#579,.T.);
#579 = LINE('',#580,#581);
#580 = CARTESIAN_POINT('',(-12.5,-15.,17.5));
#581 = VECTOR('',#582,1.);
#582 = DIRECTION('',(-1.,0.,0.));
#583 = PLANE('',#584);
#584 = AXIS2_PLACEMENT_3D('',#585,#586,#587);
#585 = CARTESIAN_POINT('',(-17.5,-7.5,17.5));
#586 = DIRECTION('',(0.,5.551115123126E-16,1.));
#587 = DIRECTION('',(0.,-1.,5.551115123126E-16));
#588 = ADVANCED_FACE('',(#589),#630,.T.);
#589 = FACE_BOUND('',#590,.T.);
#590 = EDGE_LOOP('',(#591,#599,#606,#607,#615,#623,#629));
#591 = ORIENTED_EDGE('',*,*,#592,.T.);
#592 = EDGE_CURVE('',#208,#593,#595,.T.);
#593 = VERTEX_POINT('',#594);
#594 = CARTESIAN_POINT('',(-17.5,-9.,12.5));
#595 = LINE('',#596,#597);
#596 = CARTESIAN_POINT('',(-17.5,1.110223024625E-14,12.5));
#597 = VECTOR('',#598,1.);
#598 = DIRECTION('',(0.,-1.,8.881784197001E-16));
#599 = ORIENTED_EDGE('',*,*,#600,.F.);
#600 = EDGE_CURVE('',#531,#593,#601,.T.);
#601 = CIRCLE('',#602,1.);
#602 = AXIS2_PLACEMENT_3D('',#603,#604,#605);
#603 = CARTESIAN_POINT('',(-16.5,-9.,12.5));
#604 = DIRECTION('',(0.,-7.771561172376E-16,-1.));
#605 = DIRECTION('',(0.,1.,-7.771561172376E-16));
#606 = ORIENTED_EDGE('',*,*,#530,.T.);
#607 = ORIENTED_EDGE('',*,*,#608,.T.);
#608 = EDGE_CURVE('',#533,#609,#611,.T.);
#609 = VERTEX_POINT('',#610);
#610 = CARTESIAN_POINT('',(-12.5,-15.,12.5));
#611 = LINE('',#612,#613);
#612 = CARTESIAN_POINT('',(-12.5,-10.,12.5));
#613 = VECTOR('',#614,1.);
#614 = DIRECTION('',(0.,-1.,6.661338147751E-16));
#615 = ORIENTED_EDGE('',*,*,#616,.F.);
#616 = EDGE_CURVE('',#617,#609,#619,.T.);
#617 = VERTEX_POINT('',#618);
#618 = CARTESIAN_POINT('',(-22.5,-15.,12.5));
#619 = LINE('',#620,#621);
#620 = CARTESIAN_POINT('',(-22.5,-15.,12.5));
#621 = VECTOR('',#622,1.);
#622 = DIRECTION('',(1.,0.,0.));
#623 = ORIENTED_EDGE('',*,*,#624,.F.);
#624 = EDGE_CURVE('',#216,#617,#625,.T.);
#625 = LINE('',#626,#627);
#626 = CARTESIAN_POINT('',(-22.5,-10.,12.5));
#627 = VECTOR('',#628,1.);
#628 = DIRECTION('',(0.,-1.,6.661338147751E-16));
#629 = ORIENTED_EDGE('',*,*,#215,.T.);
#630 = PLANE('',#631);
#631 = AXIS2_PLACEMENT_3D('',#632,#633,#634);
#632 = CARTESIAN_POINT('',(-18.5,-8.5,12.5));
#633 = DIRECTION('',(0.,-8.114929118136E-16,-1.));
#634 = DIRECTION('',(0.,1.,-8.114929118136E-16));
#635 = ADVANCED_FACE('',(#636),#652,.F.);
#636 = FACE_BOUND('',#637,.T.);
#637 = EDGE_LOOP('',(#638,#639,#645,#646));
#638 = ORIENTED_EDGE('',*,*,#578,.T.);
#639 = ORIENTED_EDGE('',*,*,#640,.T.);
#640 = EDGE_CURVE('',#571,#617,#641,.T.);
#641 = LINE('',#642,#643);
#642 = CARTESIAN_POINT('',(-22.5,-15.,17.5));
#643 = VECTOR('',#644,1.);
#644 = DIRECTION('',(0.,-6.661338147751E-16,-1.));
#645 = ORIENTED_EDGE('',*,*,#616,.T.);
#646 = ORIENTED_EDGE('',*,*,#647,.T.);
#647 = EDGE_CURVE('',#609,#562,#648,.T.);
#648 = LINE('',#649,#650);
#649 = CARTESIAN_POINT('',(-12.5,-15.,12.5));
#650 = VECTOR('',#651,1.);
#651 = DIRECTION('',(0.,6.661338147751E-16,1.));
#652 = PLANE('',#653);
#653 = AXIS2_PLACEMENT_3D('',#654,#655,#656);
#654 = CARTESIAN_POINT('',(-3.552713678801E-16,-15.,5.329070518201E-15)
  );
#655 = DIRECTION('',(0.,1.,-6.74535502529E-16));
#656 = DIRECTION('',(0.,6.74535502529E-16,1.));
#657 = ADVANCED_FACE('',(#658),#669,.T.);
#658 = FACE_BOUND('',#659,.T.);
#659 = EDGE_LOOP('',(#660,#661,#662,#663));
#660 = ORIENTED_EDGE('',*,*,#592,.F.);
#661 = ORIENTED_EDGE('',*,*,#207,.T.);
#662 = ORIENTED_EDGE('',*,*,#80,.T.);
#663 = ORIENTED_EDGE('',*,*,#664,.F.);
#664 = EDGE_CURVE('',#593,#72,#665,.T.);
#665 = LINE('',#666,#667);
#666 = CARTESIAN_POINT('',(-17.5,-9.,12.5));
#667 = VECTOR('',#668,1.);
#668 = DIRECTION('',(0.,-7.771561172376E-16,-1.));
#669 = PLANE('',#670);
#670 = AXIS2_PLACEMENT_3D('',#671,#672,#673);
#671 = CARTESIAN_POINT('',(-17.5,-5.,3.127656863658E-15));
#672 = DIRECTION('',(-1.,0.,-0.));
#673 = DIRECTION('',(0.,1.,-6.661338147751E-16));
#674 = ADVANCED_FACE('',(#675),#681,.T.);
#675 = FACE_BOUND('',#676,.T.);
#676 = EDGE_LOOP('',(#677,#678,#679,#680));
#677 = ORIENTED_EDGE('',*,*,#223,.T.);
#678 = ORIENTED_EDGE('',*,*,#624,.T.);
#679 = ORIENTED_EDGE('',*,*,#640,.F.);
#680 = ORIENTED_EDGE('',*,*,#570,.F.);
#681 = PLANE('',#682);
#682 = AXIS2_PLACEMENT_3D('',#683,#684,#685);
#683 = CARTESIAN_POINT('',(-22.5,-7.5,15.));
#684 = DIRECTION('',(-1.,0.,-0.));
#685 = DIRECTION('',(0.,1.,-5.551115123126E-16));
#686 = ADVANCED_FACE('',(#687),#737,.T.);
#687 = FACE_BOUND('',#688,.T.);
#688 = EDGE_LOOP('',(#689,#697,#706,#714,#722,#730,#736));
#689 = ORIENTED_EDGE('',*,*,#690,.T.);
#690 = EDGE_CURVE('',#288,#691,#693,.T.);
#691 = VERTEX_POINT('',#692);
#692 = CARTESIAN_POINT('',(17.5,-9.,-12.5));
#693 = LINE('',#694,#695);
#694 = CARTESIAN_POINT('',(17.5,-1.110223024625E-14,-12.5));
#695 = VECTOR('',#696,1.);
#696 = DIRECTION('',(0.,-1.,8.881784197001E-16));
#697 = ORIENTED_EDGE('',*,*,#698,.T.);
#698 = EDGE_CURVE('',#691,#699,#701,.T.);
#699 = VERTEX_POINT('',#700);
#700 = CARTESIAN_POINT('',(16.5,-10.,-12.5));
#701 = CIRCLE('',#702,1.);
#702 = AXIS2_PLACEMENT_3D('',#703,#704,#705);
#703 = CARTESIAN_POINT('',(16.5,-9.,-12.5));
#704 = DIRECTION('',(0.,-7.771561172376E-16,-1.));
#705 = DIRECTION('',(0.,1.,-7.771561172376E-16));
#706 = ORIENTED_EDGE('',*,*,#707,.T.);
#707 = EDGE_CURVE('',#699,#708,#710,.T.);
#708 = VERTEX_POINT('',#709);
#709 = CARTESIAN_POINT('',(12.5,-10.,-12.5));
#710 = LINE('',#711,#712);
#711 = CARTESIAN_POINT('',(22.5,-10.,-12.5));
#712 = VECTOR('',#713,1.);
#713 = DIRECTION('',(-1.,0.,0.));
#714 = ORIENTED_EDGE('',*,*,#715,.T.);
#715 = EDGE_CURVE('',#708,#716,#718,.T.);
#716 = VERTEX_POINT('',#717);
#717 = CARTESIAN_POINT('',(12.5,-15.,-12.5));
#718 = LINE('',#719,#720);
#719 = CARTESIAN_POINT('',(12.5,-10.,-12.5));
#720 = VECTOR('',#721,1.);
#721 = DIRECTION('',(0.,-1.,6.661338147751E-16));
#722 = ORIENTED_EDGE('',*,*,#723,.F.);
#723 = EDGE_CURVE('',#724,#716,#726,.T.);
#724 = VERTEX_POINT('',#725);
#725 = CARTESIAN_POINT('',(22.5,-15.,-12.5));
#726 = LINE('',#727,#728);
#727 = CARTESIAN_POINT('',(22.5,-15.,-12.5));
#728 = VECTOR('',#729,1.);
#729 = DIRECTION('',(-1.,0.,0.));
#730 = ORIENTED_EDGE('',*,*,#731,.F.);
#731 = EDGE_CURVE('',#296,#724,#732,.T.);
#732 = LINE('',#733,#734);
#733 = CARTESIAN_POINT('',(22.5,-10.,-12.5));
#734 = VECTOR('',#735,1.);
#735 = DIRECTION('',(0.,-1.,6.661338147751E-16));
#736 = ORIENTED_EDGE('',*,*,#295,.F.);
#737 = PLANE('',#738);
#738 = AXIS2_PLACEMENT_3D('',#739,#740,#741);
#739 = CARTESIAN_POINT('',(18.5,-8.5,-12.5));
#740 = DIRECTION('',(0.,5.551115123126E-16,1.));
#741 = DIRECTION('',(0.,-1.,5.551115123126E-16));
#742 = ADVANCED_FACE('',(#743),#761,.T.);
#743 = FACE_BOUND('',#744,.T.);
#744 = EDGE_LOOP('',(#745,#753,#759,#760));
#745 = ORIENTED_EDGE('',*,*,#746,.T.);
#746 = EDGE_CURVE('',#280,#747,#749,.T.);
#747 = VERTEX_POINT('',#748);
#748 = CARTESIAN_POINT('',(17.5,-9.,12.5));
#749 = LINE('',#750,#751);
#750 = CARTESIAN_POINT('',(17.5,1.110223024625E-14,12.5));
#751 = VECTOR('',#752,1.);
#752 = DIRECTION('',(0.,-1.,8.881784197001E-16));
#753 = ORIENTED_EDGE('',*,*,#754,.T.);
#754 = EDGE_CURVE('',#747,#691,#755,.T.);
#755 = LINE('',#756,#757);
#756 = CARTESIAN_POINT('',(17.5,-9.,12.5));
#757 = VECTOR('',#758,1.);
#758 = DIRECTION('',(0.,-7.771561172376E-16,-1.));
#759 = ORIENTED_EDGE('',*,*,#690,.F.);
#760 = ORIENTED_EDGE('',*,*,#287,.F.);
#761 = PLANE('',#762);
#762 = AXIS2_PLACEMENT_3D('',#763,#764,#765);
#763 = CARTESIAN_POINT('',(17.5,-5.,3.330669073875E-15));
#764 = DIRECTION('',(1.,0.,0.));
#765 = DIRECTION('',(0.,-1.,6.661338147751E-16));
#766 = ADVANCED_FACE('',(#767),#810,.T.);
#767 = FACE_BOUND('',#768,.T.);
#768 = EDGE_LOOP('',(#769,#779,#786,#787,#788,#796,#804));
#769 = ORIENTED_EDGE('',*,*,#770,.T.);
#770 = EDGE_CURVE('',#771,#773,#775,.T.);
#771 = VERTEX_POINT('',#772);
#772 = CARTESIAN_POINT('',(12.5,-10.,12.5));
#773 = VERTEX_POINT('',#774);
#774 = CARTESIAN_POINT('',(16.5,-10.,12.5));
#775 = LINE('',#776,#777);
#776 = CARTESIAN_POINT('',(12.5,-10.,12.5));
#777 = VECTOR('',#778,1.);
#778 = DIRECTION('',(1.,0.,0.));
#779 = ORIENTED_EDGE('',*,*,#780,.F.);
#780 = EDGE_CURVE('',#747,#773,#781,.T.);
#781 = CIRCLE('',#782,1.);
#782 = AXIS2_PLACEMENT_3D('',#783,#784,#785);
#783 = CARTESIAN_POINT('',(16.5,-9.,12.5));
#784 = DIRECTION('',(0.,-7.771561172376E-16,-1.));
#785 = DIRECTION('',(0.,1.,-7.771561172376E-16));
#786 = ORIENTED_EDGE('',*,*,#746,.F.);
#787 = ORIENTED_EDGE('',*,*,#279,.F.);
#788 = ORIENTED_EDGE('',*,*,#789,.T.);
#789 = EDGE_CURVE('',#272,#790,#792,.T.);
#790 = VERTEX_POINT('',#791);
#791 = CARTESIAN_POINT('',(22.5,-15.,12.5));
#792 = LINE('',#793,#794);
#793 = CARTESIAN_POINT('',(22.5,-5.,12.5));
#794 = VECTOR('',#795,1.);
#795 = DIRECTION('',(0.,-1.,7.771561172376E-16));
#796 = ORIENTED_EDGE('',*,*,#797,.F.);
#797 = EDGE_CURVE('',#798,#790,#800,.T.);
#798 = VERTEX_POINT('',#799);
#799 = CARTESIAN_POINT('',(12.5,-15.,12.5));
#800 = LINE('',#801,#802);
#801 = CARTESIAN_POINT('',(12.5,-15.,12.5));
#802 = VECTOR('',#803,1.);
#803 = DIRECTION('',(1.,0.,0.));
#804 = ORIENTED_EDGE('',*,*,#805,.F.);
#805 = EDGE_CURVE('',#771,#798,#806,.T.);
#806 = LINE('',#807,#808);
#807 = CARTESIAN_POINT('',(12.5,-10.,12.5));
#808 = VECTOR('',#809,1.);
#809 = DIRECTION('',(0.,-1.,6.661338147751E-16));
#810 = PLANE('',#811);
#811 = AXIS2_PLACEMENT_3D('',#812,#813,#814);
#812 = CARTESIAN_POINT('',(18.5,-8.5,12.5));
#813 = DIRECTION('',(0.,-7.956216823207E-16,-1.));
#814 = DIRECTION('',(0.,1.,-7.956216823207E-16));
#815 = ADVANCED_FACE('',(#816),#834,.T.);
#816 = FACE_BOUND('',#817,.T.);
#817 = EDGE_LOOP('',(#818,#826,#832,#833));
#818 = ORIENTED_EDGE('',*,*,#819,.T.);
#819 = EDGE_CURVE('',#264,#820,#822,.T.);
#820 = VERTEX_POINT('',#821);
#821 = CARTESIAN_POINT('',(22.5,-15.,17.5));
#822 = LINE('',#823,#824);
#823 = CARTESIAN_POINT('',(22.5,-10.,17.5));
#824 = VECTOR('',#825,1.);
#825 = DIRECTION('',(0.,-1.,6.661338147751E-16));
#826 = ORIENTED_EDGE('',*,*,#827,.F.);
#827 = EDGE_CURVE('',#790,#820,#828,.T.);
#828 = LINE('',#829,#830);
#829 = CARTESIAN_POINT('',(22.5,-15.,12.5));
#830 = VECTOR('',#831,1.);
#831 = DIRECTION('',(0.,6.661338147751E-16,1.));
#832 = ORIENTED_EDGE('',*,*,#789,.F.);
#833 = ORIENTED_EDGE('',*,*,#271,.F.);
#834 = PLANE('',#835);
#835 = AXIS2_PLACEMENT_3D('',#836,#837,#838);
#836 = CARTESIAN_POINT('',(22.5,-7.5,15.));
#837 = DIRECTION('',(1.,0.,0.));
#838 = DIRECTION('',(0.,-1.,5.551115123126E-16));
#839 = ADVANCED_FACE('',(#840),#858,.T.);
#840 = FACE_BOUND('',#841,.T.);
#841 = EDGE_LOOP('',(#842,#843,#851,#857));
#842 = ORIENTED_EDGE('',*,*,#263,.F.);
#843 = ORIENTED_EDGE('',*,*,#844,.T.);
#844 = EDGE_CURVE('',#256,#845,#847,.T.);
#845 = VERTEX_POINT('',#846);
#846 = CARTESIAN_POINT('',(12.5,-15.,17.5));
#847 = LINE('',#848,#849);
#848 = CARTESIAN_POINT('',(12.5,-10.,17.5));
#849 = VECTOR('',#850,1.);
#850 = DIRECTION('',(0.,-1.,6.661338147751E-16));
#851 = ORIENTED_EDGE('',*,*,#852,.F.);
#852 = EDGE_CURVE('',#820,#845,#853,.T.);
#853 = LINE('',#854,#855);
#854 = CARTESIAN_POINT('',(22.5,-15.,17.5));
#855 = VECTOR('',#856,1.);
#856 = DIRECTION('',(-1.,0.,0.));
#857 = ORIENTED_EDGE('',*,*,#819,.F.);
#858 = PLANE('',#859);
#859 = AXIS2_PLACEMENT_3D('',#860,#861,#862);
#860 = CARTESIAN_POINT('',(17.5,-7.5,17.5));
#861 = DIRECTION('',(0.,5.551115123126E-16,1.));
#862 = DIRECTION('',(0.,-1.,5.551115123126E-16));
#863 = ADVANCED_FACE('',(#864),#889,.F.);
#864 = FACE_BOUND('',#865,.F.);
#865 = EDGE_LOOP('',(#866,#876,#882,#883));
#866 = ORIENTED_EDGE('',*,*,#867,.F.);
#867 = EDGE_CURVE('',#868,#870,#872,.T.);
#868 = VERTEX_POINT('',#869);
#869 = CARTESIAN_POINT('',(-5.5,-3.,5.5));
#870 = VERTEX_POINT('',#871);
#871 = CARTESIAN_POINT('',(-5.5,-3.,-5.5));
#872 = LINE('',#873,#874);
#873 = CARTESIAN_POINT('',(-5.5,-3.,5.5));
#874 = VECTOR('',#875,1.);
#875 = DIRECTION('',(0.,-4.440892098501E-16,-1.));
#876 = ORIENTED_EDGE('',*,*,#877,.T.);
#877 = EDGE_CURVE('',#868,#337,#878,.T.);
#878 = LINE('',#879,#880);
#879 = CARTESIAN_POINT('',(-5.5,-3.,5.5));
#880 = VECTOR('',#881,1.);
#881 = DIRECTION('',(0.,1.,-4.440892098501E-16));
#882 = ORIENTED_EDGE('',*,*,#334,.F.);
#883 = ORIENTED_EDGE('',*,*,#884,.F.);
#884 = EDGE_CURVE('',#870,#335,#885,.T.);
#885 = LINE('',#886,#887);
#886 = CARTESIAN_POINT('',(-5.5,-3.,-5.5));
#887 = VECTOR('',#888,1.);
#888 = DIRECTION('',(0.,1.,-4.440892098501E-16));
#889 = PLANE('',#890);
#890 = AXIS2_PLACEMENT_3D('',#891,#892,#893);
#891 = CARTESIAN_POINT('',(-5.5,-3.,5.5));
#892 = DIRECTION('',(-1.,0.,0.));
#893 = DIRECTION('',(0.,-4.440892098501E-16,-1.));
#894 = ADVANCED_FACE('',(#895),#913,.F.);
#895 = FACE_BOUND('',#896,.F.);
#896 = EDGE_LOOP('',(#897,#905,#911,#912));
#897 = ORIENTED_EDGE('',*,*,#898,.F.);
#898 = EDGE_CURVE('',#899,#868,#901,.T.);
#899 = VERTEX_POINT('',#900);
#900 = CARTESIAN_POINT('',(5.5,-3.,5.5));
#901 = LINE('',#902,#903);
#902 = CARTESIAN_POINT('',(5.5,-3.,5.5));
#903 = VECTOR('',#904,1.);
#904 = DIRECTION('',(-1.,0.,0.));
#905 = ORIENTED_EDGE('',*,*,#906,.T.);
#906 = EDGE_CURVE('',#899,#353,#907,.T.);
#907 = LINE('',#908,#909);
#908 = CARTESIAN_POINT('',(5.5,-3.,5.5));
#909 = VECTOR('',#910,1.);
#910 = DIRECTION('',(0.,1.,-4.440892098501E-16));
#911 = ORIENTED_EDGE('',*,*,#360,.F.);
#912 = ORIENTED_EDGE('',*,*,#877,.F.);
#913 = PLANE('',#914);
#914 = AXIS2_PLACEMENT_3D('',#915,#916,#917);
#915 = CARTESIAN_POINT('',(5.5,-3.,5.5));
#916 = DIRECTION('',(0.,4.440892098501E-16,1.));
#917 = DIRECTION('',(-1.,0.,0.));
#918 = ADVANCED_FACE('',(#919),#937,.F.);
#919 = FACE_BOUND('',#920,.F.);
#920 = EDGE_LOOP('',(#921,#929,#935,#936));
#921 = ORIENTED_EDGE('',*,*,#922,.F.);
#922 = EDGE_CURVE('',#923,#899,#925,.T.);
#923 = VERTEX_POINT('',#924);
#924 = CARTESIAN_POINT('',(5.5,-3.,-5.5));
#925 = LINE('',#926,#927);
#926 = CARTESIAN_POINT('',(5.5,-3.,-5.5));
#927 = VECTOR('',#928,1.);
#928 = DIRECTION('',(0.,4.440892098501E-16,1.));
#929 = ORIENTED_EDGE('',*,*,#930,.T.);
#930 = EDGE_CURVE('',#923,#345,#931,.T.);
#931 = LINE('',#932,#933);
#932 = CARTESIAN_POINT('',(5.5,-3.,-5.5));
#933 = VECTOR('',#934,1.);
#934 = DIRECTION('',(0.,1.,-4.440892098501E-16));
#935 = ORIENTED_EDGE('',*,*,#352,.F.);
#936 = ORIENTED_EDGE('',*,*,#906,.F.);
#937 = PLANE('',#938);
#938 = AXIS2_PLACEMENT_3D('',#939,#940,#941);
#939 = CARTESIAN_POINT('',(5.5,-3.,-5.5));
#940 = DIRECTION('',(1.,0.,0.));
#941 = DIRECTION('',(0.,4.440892098501E-16,1.));
#942 = ADVANCED_FACE('',(#943),#954,.F.);
#943 = FACE_BOUND('',#944,.F.);
#944 = EDGE_LOOP('',(#945,#951,#952,#953));
#945 = ORIENTED_EDGE('',*,*,#946,.F.);
#946 = EDGE_CURVE('',#870,#923,#947,.T.);
#947 = LINE('',#948,#949);
#948 = CARTESIAN_POINT('',(-5.5,-3.,-5.5));
#949 = VECTOR('',#950,1.);
#950 = DIRECTION('',(1.,0.,0.));
#951 = ORIENTED_EDGE('',*,*,#884,.T.);
#952 = ORIENTED_EDGE('',*,*,#344,.F.);
#953 = ORIENTED_EDGE('',*,*,#930,.F.);
#954 = PLANE('',#955);
#955 = AXIS2_PLACEMENT_3D('',#956,#957,#958);
#956 = CARTESIAN_POINT('',(-5.5,-3.,-5.5));
#957 = DIRECTION('',(0.,-4.440892098501E-16,-1.));
#958 = DIRECTION('',(1.,0.,0.));
#959 = ADVANCED_FACE('',(#960),#985,.T.);
#960 = FACE_BOUND('',#961,.T.);
#961 = EDGE_LOOP('',(#962,#970,#978,#984));
#962 = ORIENTED_EDGE('',*,*,#963,.T.);
#963 = EDGE_CURVE('',#400,#964,#966,.T.);
#964 = VERTEX_POINT('',#965);
#965 = CARTESIAN_POINT('',(9.5,-3.,4.75));
#966 = LINE('',#967,#968);
#967 = CARTESIAN_POINT('',(9.5,-5.,4.75));
#968 = VECTOR('',#969,1.);
#969 = DIRECTION('',(0.,1.,-5.551115123126E-16));
#970 = ORIENTED_EDGE('',*,*,#971,.T.);
#971 = EDGE_CURVE('',#964,#972,#974,.T.);
#972 = VERTEX_POINT('',#973);
#973 = CARTESIAN_POINT('',(9.5,-3.,-4.75));
#974 = LINE('',#975,#976);
#975 = CARTESIAN_POINT('',(9.5,-3.,4.75));
#976 = VECTOR('',#977,1.);
#977 = DIRECTION('',(1.869849304632E-16,-5.551115123126E-16,-1.));
#978 = ORIENTED_EDGE('',*,*,#979,.F.);
#979 = EDGE_CURVE('',#402,#972,#980,.T.);
#980 = LINE('',#981,#982);
#981 = CARTESIAN_POINT('',(9.5,-5.,-4.75));
#982 = VECTOR('',#983,1.);
#983 = DIRECTION('',(0.,1.,-5.551115123126E-16));
#984 = ORIENTED_EDGE('',*,*,#399,.F.);
#985 = PLANE('',#986);
#986 = AXIS2_PLACEMENT_3D('',#987,#988,#989);
#987 = CARTESIAN_POINT('',(9.5,-5.,4.75));
#988 = DIRECTION('',(-1.,-1.037974875291E-31,-1.869849304632E-16));
#989 = DIRECTION('',(1.869849304632E-16,-5.551115123126E-16,-1.));
#990 = ADVANCED_FACE('',(#991),#1010,.F.);
#991 = FACE_BOUND('',#992,.F.);
#992 = EDGE_LOOP('',(#993,#1001,#1008,#1009));
#993 = ORIENTED_EDGE('',*,*,#994,.T.);
#994 = EDGE_CURVE('',#453,#995,#997,.T.);
#995 = VERTEX_POINT('',#996);
#996 = CARTESIAN_POINT('',(4.75,-3.,-9.5));
#997 = LINE('',#998,#999);
#998 = CARTESIAN_POINT('',(4.75,-5.,-9.5));
#999 = VECTOR('',#1000,1.);
#1000 = DIRECTION('',(0.,1.,-5.551115123126E-16));
#1001 = ORIENTED_EDGE('',*,*,#1002,.T.);
#1002 = EDGE_CURVE('',#995,#972,#1003,.T.);
#1003 = CIRCLE('',#1004,4.75);
#1004 = AXIS2_PLACEMENT_3D('',#1005,#1006,#1007);
#1005 = CARTESIAN_POINT('',(4.75,-3.,-4.75));
#1006 = DIRECTION('',(0.,-1.,5.551115123126E-16));
#1007 = DIRECTION('',(1.,0.,0.));
#1008 = ORIENTED_EDGE('',*,*,#979,.F.);
#1009 = ORIENTED_EDGE('',*,*,#460,.F.);
#1010 = CYLINDRICAL_SURFACE('',#1011,4.75);
#1011 = AXIS2_PLACEMENT_3D('',#1012,#1013,#1014);
#1012 = CARTESIAN_POINT('',(4.75,-5.,-4.75));
#1013 = DIRECTION('',(0.,-1.,5.551115123126E-16));
#1014 = DIRECTION('',(1.,0.,0.));
#1015 = ADVANCED_FACE('',(#1016),#1034,.F.);
#1016 = FACE_BOUND('',#1017,.F.);
#1017 = EDGE_LOOP('',(#1018,#1026,#1032,#1033));
#1018 = ORIENTED_EDGE('',*,*,#1019,.T.);
#1019 = EDGE_CURVE('',#444,#1020,#1022,.T.);
#1020 = VERTEX_POINT('',#1021);
#1021 = CARTESIAN_POINT('',(-4.75,-3.,-9.5));
#1022 = LINE('',#1023,#1024);
#1023 = CARTESIAN_POINT('',(-4.75,-5.,-9.5));
#1024 = VECTOR('',#1025,1.);
#1025 = DIRECTION('',(0.,1.,-5.551115123126E-16));
#1026 = ORIENTED_EDGE('',*,*,#1027,.T.);
#1027 = EDGE_CURVE('',#1020,#995,#1028,.T.);
#1028 = LINE('',#1029,#1030);
#1029 = CARTESIAN_POINT('',(-4.75,-3.,-9.5));
#1030 = VECTOR('',#1031,1.);
#1031 = DIRECTION('',(1.,0.,0.));
#1032 = ORIENTED_EDGE('',*,*,#994,.F.);
#1033 = ORIENTED_EDGE('',*,*,#452,.F.);
#1034 = PLANE('',#1035);
#1035 = AXIS2_PLACEMENT_3D('',#1036,#1037,#1038);
#1036 = CARTESIAN_POINT('',(-4.75,-5.,-9.5));
#1037 = DIRECTION('',(0.,-5.551115123126E-16,-1.));
#1038 = DIRECTION('',(1.,0.,0.));
#1039 = ADVANCED_FACE('',(#1040),#1059,.F.);
#1040 = FACE_BOUND('',#1041,.F.);
#1041 = EDGE_LOOP('',(#1042,#1050,#1057,#1058));
#1042 = ORIENTED_EDGE('',*,*,#1043,.T.);
#1043 = EDGE_CURVE('',#436,#1044,#1046,.T.);
#1044 = VERTEX_POINT('',#1045);
#1045 = CARTESIAN_POINT('',(-9.5,-3.,-4.75));
#1046 = LINE('',#1047,#1048);
#1047 = CARTESIAN_POINT('',(-9.5,-5.,-4.75));
#1048 = VECTOR('',#1049,1.);
#1049 = DIRECTION('',(0.,1.,-5.551115123126E-16));
#1050 = ORIENTED_EDGE('',*,*,#1051,.T.);
#1051 = EDGE_CURVE('',#1044,#1020,#1052,.T.);
#1052 = CIRCLE('',#1053,4.75);
#1053 = AXIS2_PLACEMENT_3D('',#1054,#1055,#1056);
#1054 = CARTESIAN_POINT('',(-4.75,-3.,-4.75));
#1055 = DIRECTION('',(0.,-1.,5.551115123126E-16));
#1056 = DIRECTION('',(1.,0.,0.));
#1057 = ORIENTED_EDGE('',*,*,#1019,.F.);
#1058 = ORIENTED_EDGE('',*,*,#443,.F.);
#1059 = CYLINDRICAL_SURFACE('',#1060,4.75);
#1060 = AXIS2_PLACEMENT_3D('',#1061,#1062,#1063);
#1061 = CARTESIAN_POINT('',(-4.75,-5.,-4.75));
#1062 = DIRECTION('',(0.,-1.,5.551115123126E-16));
#1063 = DIRECTION('',(1.,0.,0.));
#1064 = ADVANCED_FACE('',(#1065),#1083,.F.);
#1065 = FACE_BOUND('',#1066,.F.);
#1066 = EDGE_LOOP('',(#1067,#1075,#1081,#1082));
#1067 = ORIENTED_EDGE('',*,*,#1068,.T.);
#1068 = EDGE_CURVE('',#427,#1069,#1071,.T.);
#1069 = VERTEX_POINT('',#1070);
#1070 = CARTESIAN_POINT('',(-9.5,-3.,4.75));
#1071 = LINE('',#1072,#1073);
#1072 = CARTESIAN_POINT('',(-9.5,-5.,4.75));
#1073 = VECTOR('',#1074,1.);
#1074 = DIRECTION('',(0.,1.,-5.551115123126E-16));
#1075 = ORIENTED_EDGE('',*,*,#1076,.T.);
#1076 = EDGE_CURVE('',#1069,#1044,#1077,.T.);
#1077 = LINE('',#1078,#1079);
#1078 = CARTESIAN_POINT('',(-9.5,-3.,4.75));
#1079 = VECTOR('',#1080,1.);
#1080 = DIRECTION('',(0.,-5.551115123126E-16,-1.));
#1081 = ORIENTED_EDGE('',*,*,#1043,.F.);
#1082 = ORIENTED_EDGE('',*,*,#435,.F.);
#1083 = PLANE('',#1084);
#1084 = AXIS2_PLACEMENT_3D('',#1085,#1086,#1087);
#1085 = CARTESIAN_POINT('',(-9.5,-5.,4.75));
#1086 = DIRECTION('',(-1.,0.,0.));
#1087 = DIRECTION('',(0.,-5.551115123126E-16,-1.));
#1088 = ADVANCED_FACE('',(#1089),#1108,.F.);
#1089 = FACE_BOUND('',#1090,.F.);
#1090 = EDGE_LOOP('',(#1091,#1099,#1106,#1107));
#1091 = ORIENTED_EDGE('',*,*,#1092,.T.);
#1092 = EDGE_CURVE('',#419,#1093,#1095,.T.);
#1093 = VERTEX_POINT('',#1094);
#1094 = CARTESIAN_POINT('',(-4.75,-3.,9.5));
#1095 = LINE('',#1096,#1097);
#1096 = CARTESIAN_POINT('',(-4.75,-5.,9.5));
#1097 = VECTOR('',#1098,1.);
#1098 = DIRECTION('',(0.,1.,-5.551115123126E-16));
#1099 = ORIENTED_EDGE('',*,*,#1100,.T.);
#1100 = EDGE_CURVE('',#1093,#1069,#1101,.T.);
#1101 = CIRCLE('',#1102,4.75);
#1102 = AXIS2_PLACEMENT_3D('',#1103,#1104,#1105);
#1103 = CARTESIAN_POINT('',(-4.75,-3.,4.75));
#1104 = DIRECTION('',(0.,-1.,5.551115123126E-16));
#1105 = DIRECTION('',(1.,0.,0.));
#1106 = ORIENTED_EDGE('',*,*,#1068,.F.);
#1107 = ORIENTED_EDGE('',*,*,#426,.F.);
#1108 = CYLINDRICAL_SURFACE('',#1109,4.75);
#1109 = AXIS2_PLACEMENT_3D('',#1110,#1111,#1112);
#1110 = CARTESIAN_POINT('',(-4.75,-5.,4.75));
#1111 = DIRECTION('',(0.,-1.,5.551115123126E-16));
#1112 = DIRECTION('',(1.,0.,0.));
#1113 = ADVANCED_FACE('',(#1114),#1132,.T.);
#1114 = FACE_BOUND('',#1115,.T.);
#1115 = EDGE_LOOP('',(#1116,#1117,#1125,#1131));
#1116 = ORIENTED_EDGE('',*,*,#1092,.T.);
#1117 = ORIENTED_EDGE('',*,*,#1118,.T.);
#1118 = EDGE_CURVE('',#1093,#1119,#1121,.T.);
#1119 = VERTEX_POINT('',#1120);
#1120 = CARTESIAN_POINT('',(4.75,-3.,9.5));
#1121 = LINE('',#1122,#1123);
#1122 = CARTESIAN_POINT('',(-4.75,-3.,9.5));
#1123 = VECTOR('',#1124,1.);
#1124 = DIRECTION('',(1.,0.,0.));
#1125 = ORIENTED_EDGE('',*,*,#1126,.F.);
#1126 = EDGE_CURVE('',#410,#1119,#1127,.T.);
#1127 = LINE('',#1128,#1129);
#1128 = CARTESIAN_POINT('',(4.75,-5.,9.5));
#1129 = VECTOR('',#1130,1.);
#1130 = DIRECTION('',(0.,1.,-5.551115123126E-16));
#1131 = ORIENTED_EDGE('',*,*,#418,.F.);
#1132 = PLANE('',#1133);
#1133 = AXIS2_PLACEMENT_3D('',#1134,#1135,#1136);
#1134 = CARTESIAN_POINT('',(-4.75,-5.,9.5));
#1135 = DIRECTION('',(0.,-5.551115123126E-16,-1.));
#1136 = DIRECTION('',(1.,0.,0.));
#1137 = ADVANCED_FACE('',(#1138),#1150,.F.);
#1138 = FACE_BOUND('',#1139,.F.);
#1139 = EDGE_LOOP('',(#1140,#1141,#1148,#1149));
#1140 = ORIENTED_EDGE('',*,*,#963,.T.);
#1141 = ORIENTED_EDGE('',*,*,#1142,.T.);
#1142 = EDGE_CURVE('',#964,#1119,#1143,.T.);
#1143 = CIRCLE('',#1144,4.75);
#1144 = AXIS2_PLACEMENT_3D('',#1145,#1146,#1147);
#1145 = CARTESIAN_POINT('',(4.75,-3.,4.75));
#1146 = DIRECTION('',(0.,-1.,5.551115123126E-16));
#1147 = DIRECTION('',(1.,0.,0.));
#1148 = ORIENTED_EDGE('',*,*,#1126,.F.);
#1149 = ORIENTED_EDGE('',*,*,#409,.F.);
#1150 = CYLINDRICAL_SURFACE('',#1151,4.75);
#1151 = AXIS2_PLACEMENT_3D('',#1152,#1153,#1154);
#1152 = CARTESIAN_POINT('',(4.75,-5.,4.75));
#1153 = DIRECTION('',(0.,-1.,5.551115123126E-16));
#1154 = DIRECTION('',(1.,0.,0.));
#1155 = ADVANCED_FACE('',(#1156),#1181,.F.);
#1156 = FACE_BOUND('',#1157,.F.);
#1157 = EDGE_LOOP('',(#1158,#1166,#1174,#1180));
#1158 = ORIENTED_EDGE('',*,*,#1159,.T.);
#1159 = EDGE_CURVE('',#40,#1160,#1162,.T.);
#1160 = VERTEX_POINT('',#1161);
#1161 = CARTESIAN_POINT('',(-12.5,-25.,-15.5));
#1162 = LINE('',#1163,#1164);
#1163 = CARTESIAN_POINT('',(-12.5,-15.,-15.5));
#1164 = VECTOR('',#1165,1.);
#1165 = DIRECTION('',(0.,-1.,3.330669073875E-16));
#1166 = ORIENTED_EDGE('',*,*,#1167,.T.);
#1167 = EDGE_CURVE('',#1160,#1168,#1170,.T.);
#1168 = VERTEX_POINT('',#1169);
#1169 = CARTESIAN_POINT('',(-22.5,-25.,-15.5));
#1170 = LINE('',#1171,#1172);
#1171 = CARTESIAN_POINT('',(-12.5,-25.,-15.5));
#1172 = VECTOR('',#1173,1.);
#1173 = DIRECTION('',(-1.,0.,0.));
#1174 = ORIENTED_EDGE('',*,*,#1175,.F.);
#1175 = EDGE_CURVE('',#24,#1168,#1176,.T.);
#1176 = LINE('',#1177,#1178);
#1177 = CARTESIAN_POINT('',(-22.5,-15.,-15.5));
#1178 = VECTOR('',#1179,1.);
#1179 = DIRECTION('',(0.,-1.,3.330669073875E-16));
#1180 = ORIENTED_EDGE('',*,*,#47,.F.);
#1181 = PLANE('',#1182);
#1182 = AXIS2_PLACEMENT_3D('',#1183,#1184,#1185);
#1183 = CARTESIAN_POINT('',(-12.5,-15.,-15.5));
#1184 = DIRECTION('',(0.,-3.330669073875E-16,-1.));
#1185 = DIRECTION('',(-1.,0.,0.));
#1186 = ADVANCED_FACE('',(#1187),#1212,.F.);
#1187 = FACE_BOUND('',#1188,.T.);
#1188 = EDGE_LOOP('',(#1189,#1197,#1205,#1211));
#1189 = ORIENTED_EDGE('',*,*,#1190,.T.);
#1190 = EDGE_CURVE('',#1168,#1191,#1193,.T.);
#1191 = VERTEX_POINT('',#1192);
#1192 = CARTESIAN_POINT('',(-22.5,-25.,-17.5));
#1193 = LINE('',#1194,#1195);
#1194 = CARTESIAN_POINT('',(-22.5,-25.,-15.5));
#1195 = VECTOR('',#1196,1.);
#1196 = DIRECTION('',(0.,-3.330669073875E-16,-1.));
#1197 = ORIENTED_EDGE('',*,*,#1198,.T.);
#1198 = EDGE_CURVE('',#1191,#1199,#1201,.T.);
#1199 = VERTEX_POINT('',#1200);
#1200 = CARTESIAN_POINT('',(-12.5,-25.,-17.5));
#1201 = LINE('',#1202,#1203);
#1202 = CARTESIAN_POINT('',(-22.5,-25.,-17.5));
#1203 = VECTOR('',#1204,1.);
#1204 = DIRECTION('',(1.,0.,0.));
#1205 = ORIENTED_EDGE('',*,*,#1206,.T.);
#1206 = EDGE_CURVE('',#1199,#1160,#1207,.T.);
#1207 = LINE('',#1208,#1209);
#1208 = CARTESIAN_POINT('',(-12.5,-25.,-17.5));
#1209 = VECTOR('',#1210,1.);
#1210 = DIRECTION('',(0.,3.330669073875E-16,1.));
#1211 = ORIENTED_EDGE('',*,*,#1167,.T.);
#1212 = PLANE('',#1213);
#1213 = AXIS2_PLACEMENT_3D('',#1214,#1215,#1216);
#1214 = CARTESIAN_POINT('',(1.139828971948E-14,-25.,-16.5));
#1215 = DIRECTION('',(0.,1.,-1.110223024625E-16));
#1216 = DIRECTION('',(0.,1.110223024625E-16,1.));
#1217 = ADVANCED_FACE('',(#1218),#1224,.T.);
#1218 = FACE_BOUND('',#1219,.T.);
#1219 = EDGE_LOOP('',(#1220,#1221,#1222,#1223));
#1220 = ORIENTED_EDGE('',*,*,#600,.T.);
#1221 = ORIENTED_EDGE('',*,*,#664,.T.);
#1222 = ORIENTED_EDGE('',*,*,#71,.F.);
#1223 = ORIENTED_EDGE('',*,*,#547,.F.);
#1224 = CYLINDRICAL_SURFACE('',#1225,1.);
#1225 = AXIS2_PLACEMENT_3D('',#1226,#1227,#1228);
#1226 = CARTESIAN_POINT('',(-16.5,-9.,12.5));
#1227 = DIRECTION('',(0.,-7.771561172376E-16,-1.));
#1228 = DIRECTION('',(0.,-1.,7.771561172376E-16));
#1229 = ADVANCED_FACE('',(#1230),#1241,.F.);
#1230 = FACE_BOUND('',#1231,.T.);
#1231 = EDGE_LOOP('',(#1232,#1233,#1239,#1240));
#1232 = ORIENTED_EDGE('',*,*,#852,.T.);
#1233 = ORIENTED_EDGE('',*,*,#1234,.T.);
#1234 = EDGE_CURVE('',#845,#798,#1235,.T.);
#1235 = LINE('',#1236,#1237);
#1236 = CARTESIAN_POINT('',(12.5,-15.,17.5));
#1237 = VECTOR('',#1238,1.);
#1238 = DIRECTION('',(0.,-6.661338147751E-16,-1.));
#1239 = ORIENTED_EDGE('',*,*,#797,.T.);
#1240 = ORIENTED_EDGE('',*,*,#827,.T.);
#1241 = PLANE('',#1242);
#1242 = AXIS2_PLACEMENT_3D('',#1243,#1244,#1245);
#1243 = CARTESIAN_POINT('',(-3.552713678801E-16,-15.,5.329070518201E-15)
  );
#1244 = DIRECTION('',(0.,1.,-6.74535502529E-16));
#1245 = DIRECTION('',(0.,6.74535502529E-16,1.));
#1246 = ADVANCED_FACE('',(#1247),#1263,.F.);
#1247 = FACE_BOUND('',#1248,.F.);
#1248 = EDGE_LOOP('',(#1249,#1250,#1256,#1257));
#1249 = ORIENTED_EDGE('',*,*,#707,.T.);
#1250 = ORIENTED_EDGE('',*,*,#1251,.T.);
#1251 = EDGE_CURVE('',#708,#771,#1252,.T.);
#1252 = LINE('',#1253,#1254);
#1253 = CARTESIAN_POINT('',(12.5,-10.,12.5));
#1254 = VECTOR('',#1255,1.);
#1255 = DIRECTION('',(0.,7.771561172376E-16,1.));
#1256 = ORIENTED_EDGE('',*,*,#770,.T.);
#1257 = ORIENTED_EDGE('',*,*,#1258,.T.);
#1258 = EDGE_CURVE('',#773,#699,#1259,.T.);
#1259 = LINE('',#1260,#1261);
#1260 = CARTESIAN_POINT('',(16.5,-10.,12.5));
#1261 = VECTOR('',#1262,1.);
#1262 = DIRECTION('',(0.,-7.771561172376E-16,-1.));
#1263 = PLANE('',#1264);
#1264 = AXIS2_PLACEMENT_3D('',#1265,#1266,#1267);
#1265 = CARTESIAN_POINT('',(0.,-10.,7.993605777301E-15));
#1266 = DIRECTION('',(0.,1.,-5.551115123126E-16));
#1267 = DIRECTION('',(0.,5.551115123126E-16,1.));
#1268 = ADVANCED_FACE('',(#1269),#1294,.F.);
#1269 = FACE_BOUND('',#1270,.F.);
#1270 = EDGE_LOOP('',(#1271,#1272,#1280,#1288));
#1271 = ORIENTED_EDGE('',*,*,#723,.F.);
#1272 = ORIENTED_EDGE('',*,*,#1273,.F.);
#1273 = EDGE_CURVE('',#1274,#724,#1276,.T.);
#1274 = VERTEX_POINT('',#1275);
#1275 = CARTESIAN_POINT('',(22.5,-15.,-15.5));
#1276 = LINE('',#1277,#1278);
#1277 = CARTESIAN_POINT('',(22.5,-15.,-17.5));
#1278 = VECTOR('',#1279,1.);
#1279 = DIRECTION('',(0.,6.661338147751E-16,1.));
#1280 = ORIENTED_EDGE('',*,*,#1281,.T.);
#1281 = EDGE_CURVE('',#1274,#1282,#1284,.T.);
#1282 = VERTEX_POINT('',#1283);
#1283 = CARTESIAN_POINT('',(12.5,-15.,-15.5));
#1284 = LINE('',#1285,#1286);
#1285 = CARTESIAN_POINT('',(22.5,-15.,-15.5));
#1286 = VECTOR('',#1287,1.);
#1287 = DIRECTION('',(-1.,0.,0.));
#1288 = ORIENTED_EDGE('',*,*,#1289,.F.);
#1289 = EDGE_CURVE('',#716,#1282,#1290,.T.);
#1290 = LINE('',#1291,#1292);
#1291 = CARTESIAN_POINT('',(12.5,-15.,-12.5));
#1292 = VECTOR('',#1293,1.);
#1293 = DIRECTION('',(0.,-6.661338147751E-16,-1.));
#1294 = PLANE('',#1295);
#1295 = AXIS2_PLACEMENT_3D('',#1296,#1297,#1298);
#1296 = CARTESIAN_POINT('',(-3.552713678801E-16,-15.,5.329070518201E-15)
  );
#1297 = DIRECTION('',(0.,1.,-6.74535502529E-16));
#1298 = DIRECTION('',(0.,6.74535502529E-16,1.));
#1299 = ADVANCED_FACE('',(#1300),#1306,.T.);
#1300 = FACE_BOUND('',#1301,.T.);
#1301 = EDGE_LOOP('',(#1302,#1303,#1304,#1305));
#1302 = ORIENTED_EDGE('',*,*,#780,.T.);
#1303 = ORIENTED_EDGE('',*,*,#1258,.T.);
#1304 = ORIENTED_EDGE('',*,*,#698,.F.);
#1305 = ORIENTED_EDGE('',*,*,#754,.F.);
#1306 = CYLINDRICAL_SURFACE('',#1307,1.);
#1307 = AXIS2_PLACEMENT_3D('',#1308,#1309,#1310);
#1308 = CARTESIAN_POINT('',(16.5,-9.,12.5));
#1309 = DIRECTION('',(0.,-7.771561172376E-16,-1.));
#1310 = DIRECTION('',(1.,0.,0.));
#1311 = ADVANCED_FACE('',(#1312,#1322),#1328,.F.);
#1312 = FACE_BOUND('',#1313,.F.);
#1313 = EDGE_LOOP('',(#1314,#1315,#1316,#1317,#1318,#1319,#1320,#1321));
#1314 = ORIENTED_EDGE('',*,*,#1142,.F.);
#1315 = ORIENTED_EDGE('',*,*,#971,.T.);
#1316 = ORIENTED_EDGE('',*,*,#1002,.F.);
#1317 = ORIENTED_EDGE('',*,*,#1027,.F.);
#1318 = ORIENTED_EDGE('',*,*,#1051,.F.);
#1319 = ORIENTED_EDGE('',*,*,#1076,.F.);
#1320 = ORIENTED_EDGE('',*,*,#1100,.F.);
#1321 = ORIENTED_EDGE('',*,*,#1118,.T.);
#1322 = FACE_BOUND('',#1323,.F.);
#1323 = EDGE_LOOP('',(#1324,#1325,#1326,#1327));
#1324 = ORIENTED_EDGE('',*,*,#898,.T.);
#1325 = ORIENTED_EDGE('',*,*,#867,.T.);
#1326 = ORIENTED_EDGE('',*,*,#946,.T.);
#1327 = ORIENTED_EDGE('',*,*,#922,.T.);
#1328 = PLANE('',#1329);
#1329 = AXIS2_PLACEMENT_3D('',#1330,#1331,#1332);
#1330 = CARTESIAN_POINT('',(-8.31531997761E-15,-3.,5.773159728051E-15));
#1331 = DIRECTION('',(0.,1.,-3.330669073875E-16));
#1332 = DIRECTION('',(0.,3.330669073875E-16,1.));
#1333 = ADVANCED_FACE('',(#1334),#1359,.F.);
#1334 = FACE_BOUND('',#1335,.F.);
#1335 = EDGE_LOOP('',(#1336,#1344,#1352,#1358));
#1336 = ORIENTED_EDGE('',*,*,#1337,.T.);
#1337 = EDGE_CURVE('',#1274,#1338,#1340,.T.);
#1338 = VERTEX_POINT('',#1339);
#1339 = CARTESIAN_POINT('',(22.5,-25.,-15.5));
#1340 = LINE('',#1341,#1342);
#1341 = CARTESIAN_POINT('',(22.5,-15.,-15.5));
#1342 = VECTOR('',#1343,1.);
#1343 = DIRECTION('',(0.,-1.,3.330669073875E-16));
#1344 = ORIENTED_EDGE('',*,*,#1345,.T.);
#1345 = EDGE_CURVE('',#1338,#1346,#1348,.T.);
#1346 = VERTEX_POINT('',#1347);
#1347 = CARTESIAN_POINT('',(12.5,-25.,-15.5));
#1348 = LINE('',#1349,#1350);
#1349 = CARTESIAN_POINT('',(22.5,-25.,-15.5));
#1350 = VECTOR('',#1351,1.);
#1351 = DIRECTION('',(-1.,0.,0.));
#1352 = ORIENTED_EDGE('',*,*,#1353,.F.);
#1353 = EDGE_CURVE('',#1282,#1346,#1354,.T.);
#1354 = LINE('',#1355,#1356);
#1355 = CARTESIAN_POINT('',(12.5,-15.,-15.5));
#1356 = VECTOR('',#1357,1.);
#1357 = DIRECTION('',(0.,-1.,3.330669073875E-16));
#1358 = ORIENTED_EDGE('',*,*,#1281,.F.);
#1359 = PLANE('',#1360);
#1360 = AXIS2_PLACEMENT_3D('',#1361,#1362,#1363);
#1361 = CARTESIAN_POINT('',(22.5,-15.,-15.5));
#1362 = DIRECTION('',(0.,-3.330669073875E-16,-1.));
#1363 = DIRECTION('',(-1.,0.,0.));
#1364 = ADVANCED_FACE('',(#1365),#1390,.F.);
#1365 = FACE_BOUND('',#1366,.T.);
#1366 = EDGE_LOOP('',(#1367,#1375,#1383,#1389));
#1367 = ORIENTED_EDGE('',*,*,#1368,.T.);
#1368 = EDGE_CURVE('',#1346,#1369,#1371,.T.);
#1369 = VERTEX_POINT('',#1370);
#1370 = CARTESIAN_POINT('',(12.5,-25.,-17.5));
#1371 = LINE('',#1372,#1373);
#1372 = CARTESIAN_POINT('',(12.5,-25.,-15.5));
#1373 = VECTOR('',#1374,1.);
#1374 = DIRECTION('',(0.,-3.330669073875E-16,-1.));
#1375 = ORIENTED_EDGE('',*,*,#1376,.T.);
#1376 = EDGE_CURVE('',#1369,#1377,#1379,.T.);
#1377 = VERTEX_POINT('',#1378);
#1378 = CARTESIAN_POINT('',(22.5,-25.,-17.5));
#1379 = LINE('',#1380,#1381);
#1380 = CARTESIAN_POINT('',(12.5,-25.,-17.5));
#1381 = VECTOR('',#1382,1.);
#1382 = DIRECTION('',(1.,0.,0.));
#1383 = ORIENTED_EDGE('',*,*,#1384,.T.);
#1384 = EDGE_CURVE('',#1377,#1338,#1385,.T.);
#1385 = LINE('',#1386,#1387);
#1386 = CARTESIAN_POINT('',(22.5,-25.,-17.5));
#1387 = VECTOR('',#1388,1.);
#1388 = DIRECTION('',(0.,3.330669073875E-16,1.));
#1389 = ORIENTED_EDGE('',*,*,#1345,.T.);
#1390 = PLANE('',#1391);
#1391 = AXIS2_PLACEMENT_3D('',#1392,#1393,#1394);
#1392 = CARTESIAN_POINT('',(1.139828971948E-14,-25.,-16.5));
#1393 = DIRECTION('',(0.,1.,-1.110223024625E-16));
#1394 = DIRECTION('',(0.,1.110223024625E-16,1.));
#1395 = ADVANCED_FACE('',(#1396),#1419,.T.);
#1396 = FACE_BOUND('',#1397,.T.);
#1397 = EDGE_LOOP('',(#1398,#1399,#1400,#1401,#1402,#1403,#1404,#1405,
    #1406,#1407,#1408,#1409,#1410,#1411,#1412,#1418));
#1398 = ORIENTED_EDGE('',*,*,#117,.T.);
#1399 = ORIENTED_EDGE('',*,*,#157,.T.);
#1400 = ORIENTED_EDGE('',*,*,#374,.T.);
#1401 = ORIENTED_EDGE('',*,*,#492,.T.);
#1402 = ORIENTED_EDGE('',*,*,#515,.F.);
#1403 = ORIENTED_EDGE('',*,*,#239,.T.);
#1404 = ORIENTED_EDGE('',*,*,#561,.T.);
#1405 = ORIENTED_EDGE('',*,*,#647,.F.);
#1406 = ORIENTED_EDGE('',*,*,#608,.F.);
#1407 = ORIENTED_EDGE('',*,*,#540,.F.);
#1408 = ORIENTED_EDGE('',*,*,#103,.T.);
#1409 = ORIENTED_EDGE('',*,*,#39,.F.);
#1410 = ORIENTED_EDGE('',*,*,#1159,.T.);
#1411 = ORIENTED_EDGE('',*,*,#1206,.F.);
#1412 = ORIENTED_EDGE('',*,*,#1413,.F.);
#1413 = EDGE_CURVE('',#193,#1199,#1414,.T.);
#1414 = LINE('',#1415,#1416);
#1415 = CARTESIAN_POINT('',(-12.5,-15.,-17.5));
#1416 = VECTOR('',#1417,1.);
#1417 = DIRECTION('',(0.,-1.,3.330669073875E-16));
#1418 = ORIENTED_EDGE('',*,*,#326,.T.);
#1419 = PLANE('',#1420);
#1420 = AXIS2_PLACEMENT_3D('',#1421,#1422,#1423);
#1421 = CARTESIAN_POINT('',(-12.5,-9.455787579941,-2.372294557752));
#1422 = DIRECTION('',(1.,0.,0.));
#1423 = DIRECTION('',(0.,-1.,2.22044604925E-16));
#1424 = ADVANCED_FACE('',(#1425),#1436,.T.);
#1425 = FACE_BOUND('',#1426,.T.);
#1426 = EDGE_LOOP('',(#1427,#1428,#1429,#1435));
#1427 = ORIENTED_EDGE('',*,*,#1413,.T.);
#1428 = ORIENTED_EDGE('',*,*,#1198,.F.);
#1429 = ORIENTED_EDGE('',*,*,#1430,.F.);
#1430 = EDGE_CURVE('',#191,#1191,#1431,.T.);
#1431 = LINE('',#1432,#1433);
#1432 = CARTESIAN_POINT('',(-22.5,-15.,-17.5));
#1433 = VECTOR('',#1434,1.);
#1434 = DIRECTION('',(0.,-1.,3.330669073875E-16));
#1435 = ORIENTED_EDGE('',*,*,#190,.T.);
#1436 = PLANE('',#1437);
#1437 = AXIS2_PLACEMENT_3D('',#1438,#1439,#1440);
#1438 = CARTESIAN_POINT('',(-17.5,-12.5,-17.5));
#1439 = DIRECTION('',(0.,-5.124403317139E-16,-1.));
#1440 = DIRECTION('',(0.,1.,-5.124403317139E-16));
#1441 = ADVANCED_FACE('',(#1442),#1458,.T.);
#1442 = FACE_BOUND('',#1443,.T.);
#1443 = EDGE_LOOP('',(#1444,#1445,#1451,#1452));
#1444 = ORIENTED_EDGE('',*,*,#311,.F.);
#1445 = ORIENTED_EDGE('',*,*,#1446,.T.);
#1446 = EDGE_CURVE('',#304,#1377,#1447,.T.);
#1447 = LINE('',#1448,#1449);
#1448 = CARTESIAN_POINT('',(22.5,-1.554312234475E-14,-17.5));
#1449 = VECTOR('',#1450,1.);
#1450 = DIRECTION('',(0.,-1.,8.881784197001E-16));
#1451 = ORIENTED_EDGE('',*,*,#1376,.F.);
#1452 = ORIENTED_EDGE('',*,*,#1453,.F.);
#1453 = EDGE_CURVE('',#312,#1369,#1454,.T.);
#1454 = LINE('',#1455,#1456);
#1455 = CARTESIAN_POINT('',(12.5,-15.,-17.5));
#1456 = VECTOR('',#1457,1.);
#1457 = DIRECTION('',(0.,-1.,3.330669073875E-16));
#1458 = PLANE('',#1459);
#1459 = AXIS2_PLACEMENT_3D('',#1460,#1461,#1462);
#1460 = CARTESIAN_POINT('',(17.5,-12.5,-17.5));
#1461 = DIRECTION('',(0.,-5.309762291686E-16,-1.));
#1462 = DIRECTION('',(0.,1.,-5.309762291686E-16));
#1463 = ADVANCED_FACE('',(#1464),#1482,.T.);
#1464 = FACE_BOUND('',#1465,.T.);
#1465 = EDGE_LOOP('',(#1466,#1467,#1468,#1469,#1470,#1471,#1472,#1473,
    #1474,#1475,#1476,#1477,#1478,#1479,#1480,#1481));
#1466 = ORIENTED_EDGE('',*,*,#508,.T.);
#1467 = ORIENTED_EDGE('',*,*,#475,.F.);
#1468 = ORIENTED_EDGE('',*,*,#390,.F.);
#1469 = ORIENTED_EDGE('',*,*,#174,.F.);
#1470 = ORIENTED_EDGE('',*,*,#135,.F.);
#1471 = ORIENTED_EDGE('',*,*,#319,.F.);
#1472 = ORIENTED_EDGE('',*,*,#1453,.T.);
#1473 = ORIENTED_EDGE('',*,*,#1368,.F.);
#1474 = ORIENTED_EDGE('',*,*,#1353,.F.);
#1475 = ORIENTED_EDGE('',*,*,#1289,.F.);
#1476 = ORIENTED_EDGE('',*,*,#715,.F.);
#1477 = ORIENTED_EDGE('',*,*,#1251,.T.);
#1478 = ORIENTED_EDGE('',*,*,#805,.T.);
#1479 = ORIENTED_EDGE('',*,*,#1234,.F.);
#1480 = ORIENTED_EDGE('',*,*,#844,.F.);
#1481 = ORIENTED_EDGE('',*,*,#255,.F.);
#1482 = PLANE('',#1483);
#1483 = AXIS2_PLACEMENT_3D('',#1484,#1485,#1486);
#1484 = CARTESIAN_POINT('',(12.5,-9.455787579941,-2.372294557752));
#1485 = DIRECTION('',(-1.,0.,-0.));
#1486 = DIRECTION('',(0.,1.,-2.22044604925E-16));
#1487 = ADVANCED_FACE('',(#1488),#1496,.T.);
#1488 = FACE_BOUND('',#1489,.T.);
#1489 = EDGE_LOOP('',(#1490,#1491,#1492,#1493,#1494,#1495));
#1490 = ORIENTED_EDGE('',*,*,#1430,.T.);
#1491 = ORIENTED_EDGE('',*,*,#1190,.F.);
#1492 = ORIENTED_EDGE('',*,*,#1175,.F.);
#1493 = ORIENTED_EDGE('',*,*,#21,.F.);
#1494 = ORIENTED_EDGE('',*,*,#96,.F.);
#1495 = ORIENTED_EDGE('',*,*,#200,.F.);
#1496 = PLANE('',#1497);
#1497 = AXIS2_PLACEMENT_3D('',#1498,#1499,#1500);
#1498 = CARTESIAN_POINT('',(-22.5,-12.,-15.5));
#1499 = DIRECTION('',(-1.,-2.39287733936E-16,-3.217954866825E-16));
#1500 = DIRECTION('',(3.217954866825E-16,-2.22044604925E-16,-1.));
#1501 = ADVANCED_FACE('',(#1502),#1510,.T.);
#1502 = FACE_BOUND('',#1503,.T.);
#1503 = EDGE_LOOP('',(#1504,#1505,#1506,#1507,#1508,#1509));
#1504 = ORIENTED_EDGE('',*,*,#731,.T.);
#1505 = ORIENTED_EDGE('',*,*,#1273,.F.);
#1506 = ORIENTED_EDGE('',*,*,#1337,.T.);
#1507 = ORIENTED_EDGE('',*,*,#1384,.F.);
#1508 = ORIENTED_EDGE('',*,*,#1446,.F.);
#1509 = ORIENTED_EDGE('',*,*,#303,.F.);
#1510 = PLANE('',#1511);
#1511 = AXIS2_PLACEMENT_3D('',#1512,#1513,#1514);
#1512 = CARTESIAN_POINT('',(22.5,-12.,-15.5));
#1513 = DIRECTION('',(1.,-9.951770702804E-32,-4.481879082883E-16));
#1514 = DIRECTION('',(4.481879082883E-16,2.22044604925E-16,1.));
#1515 = ( GEOMETRIC_REPRESENTATION_CONTEXT(3) 
GLOBAL_UNCERTAINTY_ASSIGNED_CONTEXT((#1519)) 
GLOBAL_UNIT_ASSIGNED_CONTEXT((#1516,#1517,#1518)) REPRESENTATION_CONTEXT
('Context #1','3D Context with UNIT and UNCERTAINTY') );
#1516 = ( LENGTH_UNIT() NAMED_UNIT(*) SI_UNIT(.MILLI.,.METRE.) );
#1517 = ( NAMED_UNIT(*) PLANE_ANGLE_UNIT() SI_UNIT($,.RADIAN.) );
#1518 = ( NAMED_UNIT(*) SI_UNIT($,.STERADIAN.) SOLID_ANGLE_UNIT() );
#1519 = UNCERTAINTY_MEASURE_WITH_UNIT(LENGTH_MEASURE(2.E-06),#1516,
  'distance_accuracy_value','confusion accuracy');
#1520 = PRODUCT_RELATED_PRODUCT_CATEGORY('part',$,(#7));
#1521 = MECHANICAL_DESIGN_GEOMETRIC_PRESENTATION_REPRESENTATION('',(
    #1522),#1515);
#1522 = STYLED_ITEM('color',(#1523),#15);
#1523 = PRESENTATION_STYLE_ASSIGNMENT((#1524,#1530));
#1524 = SURFACE_STYLE_USAGE(.BOTH.,#1525);
#1525 = SURFACE_SIDE_STYLE('',(#1526));
#1526 = SURFACE_STYLE_FILL_AREA(#1527);
#1527 = FILL_AREA_STYLE('',(#1528));
#1528 = FILL_AREA_STYLE_COLOUR('',#1529);
#1529 = COLOUR_RGB('',0.447058818107,0.474509808674,0.501960817233);
#1530 = CURVE_STYLE('',#1531,POSITIVE_LENGTH_MEASURE(0.1),#1532);
#1531 = DRAUGHTING_PRE_DEFINED_CURVE_FONT('continuous');
#1532 = COLOUR_RGB('',9.803921802644E-02,9.803921802644E-02,
  9.803921802644E-02);
ENDSEC;
END-ISO-10303-21;
