ISO-10303-21;
HEADER;
FILE_DESCRIPTION(('FreeCAD Model'),'2;1');
FILE_NAME('Open CASCADE Shape Model','2026-04-16T17:16:19',('Author'),(
    ''),'Open CASCADE STEP processor 7.9','FreeCAD','Unknown');
FILE_SCHEMA(('AUTOMOTIVE_DESIGN { 1 0 10303 214 1 1 1 1 }'));
ENDSEC;
DATA;
#1 = APPLICATION_PROTOCOL_DEFINITION('international standard',
  'automotive_design',2000,#2);
#2 = APPLICATION_CONTEXT(
  'core data for automotive mechanical design processes');
#3 = SHAPE_DEFINITION_REPRESENTATION(#4,#10);
#4 = PRODUCT_DEFINITION_SHAPE('','',#5);
#5 = PRODUCT_DEFINITION('design','',#6,#9);
#6 = PRODUCT_DEFINITION_FORMATION('','',#7);
#7 = PRODUCT('coil_003','coil_003','',(#8));
#8 = PRODUCT_CONTEXT('',#2,'mechanical');
#9 = PRODUCT_DEFINITION_CONTEXT('part definition',#2,'design');
#10 = ADVANCED_BREP_SHAPE_REPRESENTATION('',(#11,#15),#441);
#11 = AXIS2_PLACEMENT_3D('',#12,#13,#14);
#12 = CARTESIAN_POINT('',(0.,0.,0.));
#13 = DIRECTION('',(0.,0.,1.));
#14 = DIRECTION('',(1.,0.,-0.));
#15 = MANIFOLD_SOLID_BREP('',#16);
#16 = CLOSED_SHELL('',(#17,#57,#158,#183,#208,#293,#310,#327,#344,#361,
    #373,#395,#412,#429));
#17 = ADVANCED_FACE('',(#18),#52,.F.);
#18 = FACE_BOUND('',#19,.F.);
#19 = EDGE_LOOP('',(#20,#30,#38,#46));
#20 = ORIENTED_EDGE('',*,*,#21,.F.);
#21 = EDGE_CURVE('',#22,#24,#26,.T.);
#22 = VERTEX_POINT('',#23);
#23 = CARTESIAN_POINT('',(7.5,-1.443289932013E-15,-6.5));
#24 = VERTEX_POINT('',#25);
#25 = CARTESIAN_POINT('',(7.5,1.443289932013E-15,6.5));
#26 = LINE('',#27,#28);
#27 = CARTESIAN_POINT('',(7.5,-1.665334536938E-15,-7.5));
#28 = VECTOR('',#29,1.);
#29 = DIRECTION('',(0.,2.22044604925E-16,1.));
#30 = ORIENTED_EDGE('',*,*,#31,.T.);
#31 = EDGE_CURVE('',#22,#32,#34,.T.);
#32 = VERTEX_POINT('',#33);
#33 = CARTESIAN_POINT('',(7.5,-25.,-6.5));
#34 = LINE('',#35,#36);
#35 = CARTESIAN_POINT('',(7.5,-1.443289932013E-15,-6.5));
#36 = VECTOR('',#37,1.);
#37 = DIRECTION('',(0.,-1.,2.22044604925E-16));
#38 = ORIENTED_EDGE('',*,*,#39,.T.);
#39 = EDGE_CURVE('',#32,#40,#42,.T.);
#40 = VERTEX_POINT('',#41);
#41 = CARTESIAN_POINT('',(7.5,-25.,6.5));
#42 = LINE('',#43,#44);
#43 = CARTESIAN_POINT('',(7.5,-25.,-7.5));
#44 = VECTOR('',#45,1.);
#45 = DIRECTION('',(0.,2.22044604925E-16,1.));
#46 = ORIENTED_EDGE('',*,*,#47,.F.);
#47 = EDGE_CURVE('',#24,#40,#48,.T.);
#48 = LINE('',#49,#50);
#49 = CARTESIAN_POINT('',(7.5,1.443289932013E-15,6.5));
#50 = VECTOR('',#51,1.);
#51 = DIRECTION('',(0.,-1.,2.22044604925E-16));
#52 = PLANE('',#53);
#53 = AXIS2_PLACEMENT_3D('',#54,#55,#56);
#54 = CARTESIAN_POINT('',(7.5,-1.665334536938E-15,-7.5));
#55 = DIRECTION('',(-1.,0.,0.));
#56 = DIRECTION('',(0.,2.22044604925E-16,1.));
#57 = ADVANCED_FACE('',(#58,#119),#153,.T.);
#58 = FACE_BOUND('',#59,.T.);
#59 = EDGE_LOOP('',(#60,#61,#70,#78,#87,#95,#104,#112));
#60 = ORIENTED_EDGE('',*,*,#21,.F.);
#61 = ORIENTED_EDGE('',*,*,#62,.T.);
#62 = EDGE_CURVE('',#22,#63,#65,.T.);
#63 = VERTEX_POINT('',#64);
#64 = CARTESIAN_POINT('',(6.5,-1.665334536938E-15,-7.5));
#65 = CIRCLE('',#66,1.);
#66 = AXIS2_PLACEMENT_3D('',#67,#68,#69);
#67 = CARTESIAN_POINT('',(6.5,2.169367489358E-30,-6.5));
#68 = DIRECTION('',(0.,1.,-2.22044604925E-16));
#69 = DIRECTION('',(0.,-2.22044604925E-16,-1.));
#70 = ORIENTED_EDGE('',*,*,#71,.F.);
#71 = EDGE_CURVE('',#72,#63,#74,.T.);
#72 = VERTEX_POINT('',#73);
#73 = CARTESIAN_POINT('',(-6.5,-1.665334536938E-15,-7.5));
#74 = LINE('',#75,#76);
#75 = CARTESIAN_POINT('',(-7.5,-1.665334536938E-15,-7.5));
#76 = VECTOR('',#77,1.);
#77 = DIRECTION('',(1.,0.,0.));
#78 = ORIENTED_EDGE('',*,*,#79,.T.);
#79 = EDGE_CURVE('',#72,#80,#82,.T.);
#80 = VERTEX_POINT('',#81);
#81 = CARTESIAN_POINT('',(-7.5,-1.443289932013E-15,-6.5));
#82 = CIRCLE('',#83,1.);
#83 = AXIS2_PLACEMENT_3D('',#84,#85,#86);
#84 = CARTESIAN_POINT('',(-6.5,2.169367489358E-30,-6.5));
#85 = DIRECTION('',(0.,1.,-2.22044604925E-16));
#86 = DIRECTION('',(0.,-2.22044604925E-16,-1.));
#87 = ORIENTED_EDGE('',*,*,#88,.F.);
#88 = EDGE_CURVE('',#89,#80,#91,.T.);
#89 = VERTEX_POINT('',#90);
#90 = CARTESIAN_POINT('',(-7.5,1.443289932013E-15,6.5));
#91 = LINE('',#92,#93);
#92 = CARTESIAN_POINT('',(-7.5,1.665334536938E-15,7.5));
#93 = VECTOR('',#94,1.);
#94 = DIRECTION('',(0.,-2.22044604925E-16,-1.));
#95 = ORIENTED_EDGE('',*,*,#96,.F.);
#96 = EDGE_CURVE('',#97,#89,#99,.T.);
#97 = VERTEX_POINT('',#98);
#98 = CARTESIAN_POINT('',(-6.5,1.665334536938E-15,7.5));
#99 = CIRCLE('',#100,1.);
#100 = AXIS2_PLACEMENT_3D('',#101,#102,#103);
#101 = CARTESIAN_POINT('',(-6.5,2.169367489358E-30,6.5));
#102 = DIRECTION('',(0.,-1.,2.22044604925E-16));
#103 = DIRECTION('',(0.,-2.22044604925E-16,-1.));
#104 = ORIENTED_EDGE('',*,*,#105,.F.);
#105 = EDGE_CURVE('',#106,#97,#108,.T.);
#106 = VERTEX_POINT('',#107);
#107 = CARTESIAN_POINT('',(6.5,1.665334536938E-15,7.5));
#108 = LINE('',#109,#110);
#109 = CARTESIAN_POINT('',(7.5,1.665334536938E-15,7.5));
#110 = VECTOR('',#111,1.);
#111 = DIRECTION('',(-1.,0.,0.));
#112 = ORIENTED_EDGE('',*,*,#113,.F.);
#113 = EDGE_CURVE('',#24,#106,#114,.T.);
#114 = CIRCLE('',#115,1.);
#115 = AXIS2_PLACEMENT_3D('',#116,#117,#118);
#116 = CARTESIAN_POINT('',(6.5,2.169367489358E-30,6.5));
#117 = DIRECTION('',(0.,-1.,2.22044604925E-16));
#118 = DIRECTION('',(0.,-2.22044604925E-16,-1.));
#119 = FACE_BOUND('',#120,.T.);
#120 = EDGE_LOOP('',(#121,#131,#139,#147));
#121 = ORIENTED_EDGE('',*,*,#122,.F.);
#122 = EDGE_CURVE('',#123,#125,#127,.T.);
#123 = VERTEX_POINT('',#124);
#124 = CARTESIAN_POINT('',(5.5,0.,5.5));
#125 = VERTEX_POINT('',#126);
#126 = CARTESIAN_POINT('',(5.5,0.,-5.5));
#127 = LINE('',#128,#129);
#128 = CARTESIAN_POINT('',(5.5,1.078109903802E-30,-2.75));
#129 = VECTOR('',#130,1.);
#130 = DIRECTION('',(0.,0.,-1.));
#131 = ORIENTED_EDGE('',*,*,#132,.F.);
#132 = EDGE_CURVE('',#133,#123,#135,.T.);
#133 = VERTEX_POINT('',#134);
#134 = CARTESIAN_POINT('',(-5.5,0.,5.5));
#135 = LINE('',#136,#137);
#136 = CARTESIAN_POINT('',(2.75,1.078109903802E-30,5.5));
#137 = VECTOR('',#138,1.);
#138 = DIRECTION('',(1.,0.,0.));
#139 = ORIENTED_EDGE('',*,*,#140,.F.);
#140 = EDGE_CURVE('',#141,#133,#143,.T.);
#141 = VERTEX_POINT('',#142);
#142 = CARTESIAN_POINT('',(-5.5,0.,-5.5));
#143 = LINE('',#144,#145);
#144 = CARTESIAN_POINT('',(-5.5,1.078109903802E-30,2.75));
#145 = VECTOR('',#146,1.);
#146 = DIRECTION('',(0.,0.,1.));
#147 = ORIENTED_EDGE('',*,*,#148,.F.);
#148 = EDGE_CURVE('',#125,#141,#149,.T.);
#149 = LINE('',#150,#151);
#150 = CARTESIAN_POINT('',(-2.75,1.078109903802E-30,-5.5));
#151 = VECTOR('',#152,1.);
#152 = DIRECTION('',(-1.,0.,0.));
#153 = PLANE('',#154);
#154 = AXIS2_PLACEMENT_3D('',#155,#156,#157);
#155 = CARTESIAN_POINT('',(1.681617807966E-14,2.156219807604E-30,
    9.710750722055E-15));
#156 = DIRECTION('',(0.,1.,0.));
#157 = DIRECTION('',(0.,0.,1.));
#158 = ADVANCED_FACE('',(#159),#178,.T.);
#159 = FACE_BOUND('',#160,.F.);
#160 = EDGE_LOOP('',(#161,#162,#170,#177));
#161 = ORIENTED_EDGE('',*,*,#62,.T.);
#162 = ORIENTED_EDGE('',*,*,#163,.T.);
#163 = EDGE_CURVE('',#63,#164,#166,.T.);
#164 = VERTEX_POINT('',#165);
#165 = CARTESIAN_POINT('',(6.5,-25.,-7.5));
#166 = LINE('',#167,#168);
#167 = CARTESIAN_POINT('',(6.5,-1.665334536938E-15,-7.5));
#168 = VECTOR('',#169,1.);
#169 = DIRECTION('',(0.,-1.,2.22044604925E-16));
#170 = ORIENTED_EDGE('',*,*,#171,.F.);
#171 = EDGE_CURVE('',#32,#164,#172,.T.);
#172 = CIRCLE('',#173,1.);
#173 = AXIS2_PLACEMENT_3D('',#174,#175,#176);
#174 = CARTESIAN_POINT('',(6.5,-25.,-6.5));
#175 = DIRECTION('',(0.,1.,-2.22044604925E-16));
#176 = DIRECTION('',(0.,-2.22044604925E-16,-1.));
#177 = ORIENTED_EDGE('',*,*,#31,.F.);
#178 = CYLINDRICAL_SURFACE('',#179,1.);
#179 = AXIS2_PLACEMENT_3D('',#180,#181,#182);
#180 = CARTESIAN_POINT('',(6.5,-1.443289932013E-15,-6.5));
#181 = DIRECTION('',(0.,-1.,2.22044604925E-16));
#182 = DIRECTION('',(1.,0.,0.));
#183 = ADVANCED_FACE('',(#184),#203,.T.);
#184 = FACE_BOUND('',#185,.T.);
#185 = EDGE_LOOP('',(#186,#187,#195,#202));
#186 = ORIENTED_EDGE('',*,*,#113,.T.);
#187 = ORIENTED_EDGE('',*,*,#188,.T.);
#188 = EDGE_CURVE('',#106,#189,#191,.T.);
#189 = VERTEX_POINT('',#190);
#190 = CARTESIAN_POINT('',(6.5,-25.,7.5));
#191 = LINE('',#192,#193);
#192 = CARTESIAN_POINT('',(6.5,1.665334536938E-15,7.5));
#193 = VECTOR('',#194,1.);
#194 = DIRECTION('',(0.,-1.,2.22044604925E-16));
#195 = ORIENTED_EDGE('',*,*,#196,.F.);
#196 = EDGE_CURVE('',#40,#189,#197,.T.);
#197 = CIRCLE('',#198,1.);
#198 = AXIS2_PLACEMENT_3D('',#199,#200,#201);
#199 = CARTESIAN_POINT('',(6.5,-25.,6.5));
#200 = DIRECTION('',(0.,-1.,2.22044604925E-16));
#201 = DIRECTION('',(0.,-2.22044604925E-16,-1.));
#202 = ORIENTED_EDGE('',*,*,#47,.F.);
#203 = CYLINDRICAL_SURFACE('',#204,1.);
#204 = AXIS2_PLACEMENT_3D('',#205,#206,#207);
#205 = CARTESIAN_POINT('',(6.5,1.443289932013E-15,6.5));
#206 = DIRECTION('',(0.,-1.,2.22044604925E-16));
#207 = DIRECTION('',(1.,0.,0.));
#208 = ADVANCED_FACE('',(#209,#254),#288,.F.);
#209 = FACE_BOUND('',#210,.F.);
#210 = EDGE_LOOP('',(#211,#212,#213,#221,#230,#238,#247,#253));
#211 = ORIENTED_EDGE('',*,*,#39,.F.);
#212 = ORIENTED_EDGE('',*,*,#171,.T.);
#213 = ORIENTED_EDGE('',*,*,#214,.F.);
#214 = EDGE_CURVE('',#215,#164,#217,.T.);
#215 = VERTEX_POINT('',#216);
#216 = CARTESIAN_POINT('',(-6.5,-25.,-7.5));
#217 = LINE('',#218,#219);
#218 = CARTESIAN_POINT('',(-7.5,-25.,-7.5));
#219 = VECTOR('',#220,1.);
#220 = DIRECTION('',(1.,0.,0.));
#221 = ORIENTED_EDGE('',*,*,#222,.T.);
#222 = EDGE_CURVE('',#215,#223,#225,.T.);
#223 = VERTEX_POINT('',#224);
#224 = CARTESIAN_POINT('',(-7.5,-25.,-6.5));
#225 = CIRCLE('',#226,1.);
#226 = AXIS2_PLACEMENT_3D('',#227,#228,#229);
#227 = CARTESIAN_POINT('',(-6.5,-25.,-6.5));
#228 = DIRECTION('',(0.,1.,-2.22044604925E-16));
#229 = DIRECTION('',(0.,-2.22044604925E-16,-1.));
#230 = ORIENTED_EDGE('',*,*,#231,.F.);
#231 = EDGE_CURVE('',#232,#223,#234,.T.);
#232 = VERTEX_POINT('',#233);
#233 = CARTESIAN_POINT('',(-7.5,-25.,6.5));
#234 = LINE('',#235,#236);
#235 = CARTESIAN_POINT('',(-7.5,-25.,7.5));
#236 = VECTOR('',#237,1.);
#237 = DIRECTION('',(0.,-2.22044604925E-16,-1.));
#238 = ORIENTED_EDGE('',*,*,#239,.F.);
#239 = EDGE_CURVE('',#240,#232,#242,.T.);
#240 = VERTEX_POINT('',#241);
#241 = CARTESIAN_POINT('',(-6.5,-25.,7.5));
#242 = CIRCLE('',#243,1.);
#243 = AXIS2_PLACEMENT_3D('',#244,#245,#246);
#244 = CARTESIAN_POINT('',(-6.5,-25.,6.5));
#245 = DIRECTION('',(0.,-1.,2.22044604925E-16));
#246 = DIRECTION('',(0.,-2.22044604925E-16,-1.));
#247 = ORIENTED_EDGE('',*,*,#248,.F.);
#248 = EDGE_CURVE('',#189,#240,#249,.T.);
#249 = LINE('',#250,#251);
#250 = CARTESIAN_POINT('',(7.5,-25.,7.5));
#251 = VECTOR('',#252,1.);
#252 = DIRECTION('',(-1.,0.,0.));
#253 = ORIENTED_EDGE('',*,*,#196,.F.);
#254 = FACE_BOUND('',#255,.F.);
#255 = EDGE_LOOP('',(#256,#266,#274,#282));
#256 = ORIENTED_EDGE('',*,*,#257,.T.);
#257 = EDGE_CURVE('',#258,#260,#262,.T.);
#258 = VERTEX_POINT('',#259);
#259 = CARTESIAN_POINT('',(-5.5,-25.,-5.5));
#260 = VERTEX_POINT('',#261);
#261 = CARTESIAN_POINT('',(5.5,-25.,-5.5));
#262 = LINE('',#263,#264);
#263 = CARTESIAN_POINT('',(-5.5,-25.,-5.5));
#264 = VECTOR('',#265,1.);
#265 = DIRECTION('',(1.,0.,0.));
#266 = ORIENTED_EDGE('',*,*,#267,.T.);
#267 = EDGE_CURVE('',#260,#268,#270,.T.);
#268 = VERTEX_POINT('',#269);
#269 = CARTESIAN_POINT('',(5.5,-25.,5.5));
#270 = LINE('',#271,#272);
#271 = CARTESIAN_POINT('',(5.5,-25.,-5.5));
#272 = VECTOR('',#273,1.);
#273 = DIRECTION('',(0.,2.22044604925E-16,1.));
#274 = ORIENTED_EDGE('',*,*,#275,.T.);
#275 = EDGE_CURVE('',#268,#276,#278,.T.);
#276 = VERTEX_POINT('',#277);
#277 = CARTESIAN_POINT('',(-5.5,-25.,5.5));
#278 = LINE('',#279,#280);
#279 = CARTESIAN_POINT('',(5.5,-25.,5.5));
#280 = VECTOR('',#281,1.);
#281 = DIRECTION('',(-1.,0.,0.));
#282 = ORIENTED_EDGE('',*,*,#283,.T.);
#283 = EDGE_CURVE('',#276,#258,#284,.T.);
#284 = LINE('',#285,#286);
#285 = CARTESIAN_POINT('',(-5.5,-25.,5.5));
#286 = VECTOR('',#287,1.);
#287 = DIRECTION('',(0.,-2.22044604925E-16,-1.));
#288 = PLANE('',#289);
#289 = AXIS2_PLACEMENT_3D('',#290,#291,#292);
#290 = CARTESIAN_POINT('',(1.681617807966E-14,-25.,1.526186584518E-14));
#291 = DIRECTION('',(0.,1.,0.));
#292 = DIRECTION('',(0.,0.,1.));
#293 = ADVANCED_FACE('',(#294),#305,.F.);
#294 = FACE_BOUND('',#295,.F.);
#295 = EDGE_LOOP('',(#296,#297,#303,#304));
#296 = ORIENTED_EDGE('',*,*,#71,.F.);
#297 = ORIENTED_EDGE('',*,*,#298,.T.);
#298 = EDGE_CURVE('',#72,#215,#299,.T.);
#299 = LINE('',#300,#301);
#300 = CARTESIAN_POINT('',(-6.5,-1.665334536938E-15,-7.5));
#301 = VECTOR('',#302,1.);
#302 = DIRECTION('',(0.,-1.,2.22044604925E-16));
#303 = ORIENTED_EDGE('',*,*,#214,.T.);
#304 = ORIENTED_EDGE('',*,*,#163,.F.);
#305 = PLANE('',#306);
#306 = AXIS2_PLACEMENT_3D('',#307,#308,#309);
#307 = CARTESIAN_POINT('',(-7.5,-1.665334536938E-15,-7.5));
#308 = DIRECTION('',(0.,2.22044604925E-16,1.));
#309 = DIRECTION('',(1.,0.,0.));
#310 = ADVANCED_FACE('',(#311),#322,.F.);
#311 = FACE_BOUND('',#312,.F.);
#312 = EDGE_LOOP('',(#313,#314,#315,#316));
#313 = ORIENTED_EDGE('',*,*,#105,.F.);
#314 = ORIENTED_EDGE('',*,*,#188,.T.);
#315 = ORIENTED_EDGE('',*,*,#248,.T.);
#316 = ORIENTED_EDGE('',*,*,#317,.F.);
#317 = EDGE_CURVE('',#97,#240,#318,.T.);
#318 = LINE('',#319,#320);
#319 = CARTESIAN_POINT('',(-6.5,1.665334536938E-15,7.5));
#320 = VECTOR('',#321,1.);
#321 = DIRECTION('',(0.,-1.,2.22044604925E-16));
#322 = PLANE('',#323);
#323 = AXIS2_PLACEMENT_3D('',#324,#325,#326);
#324 = CARTESIAN_POINT('',(7.5,1.665334536938E-15,7.5));
#325 = DIRECTION('',(-0.,-2.22044604925E-16,-1.));
#326 = DIRECTION('',(-1.,0.,0.));
#327 = ADVANCED_FACE('',(#328),#339,.T.);
#328 = FACE_BOUND('',#329,.F.);
#329 = EDGE_LOOP('',(#330,#331,#337,#338));
#330 = ORIENTED_EDGE('',*,*,#79,.T.);
#331 = ORIENTED_EDGE('',*,*,#332,.T.);
#332 = EDGE_CURVE('',#80,#223,#333,.T.);
#333 = LINE('',#334,#335);
#334 = CARTESIAN_POINT('',(-7.5,-1.443289932013E-15,-6.5));
#335 = VECTOR('',#336,1.);
#336 = DIRECTION('',(0.,-1.,2.22044604925E-16));
#337 = ORIENTED_EDGE('',*,*,#222,.F.);
#338 = ORIENTED_EDGE('',*,*,#298,.F.);
#339 = CYLINDRICAL_SURFACE('',#340,1.);
#340 = AXIS2_PLACEMENT_3D('',#341,#342,#343);
#341 = CARTESIAN_POINT('',(-6.5,-1.443289932013E-15,-6.5));
#342 = DIRECTION('',(0.,-1.,2.22044604925E-16));
#343 = DIRECTION('',(0.,-2.22044604925E-16,-1.));
#344 = ADVANCED_FACE('',(#345),#356,.T.);
#345 = FACE_BOUND('',#346,.T.);
#346 = EDGE_LOOP('',(#347,#348,#354,#355));
#347 = ORIENTED_EDGE('',*,*,#96,.T.);
#348 = ORIENTED_EDGE('',*,*,#349,.T.);
#349 = EDGE_CURVE('',#89,#232,#350,.T.);
#350 = LINE('',#351,#352);
#351 = CARTESIAN_POINT('',(-7.5,1.443289932013E-15,6.5));
#352 = VECTOR('',#353,1.);
#353 = DIRECTION('',(0.,-1.,2.22044604925E-16));
#354 = ORIENTED_EDGE('',*,*,#239,.F.);
#355 = ORIENTED_EDGE('',*,*,#317,.F.);
#356 = CYLINDRICAL_SURFACE('',#357,1.);
#357 = AXIS2_PLACEMENT_3D('',#358,#359,#360);
#358 = CARTESIAN_POINT('',(-6.5,1.443289932013E-15,6.5));
#359 = DIRECTION('',(0.,-1.,2.22044604925E-16));
#360 = DIRECTION('',(0.,2.22044604925E-16,1.));
#361 = ADVANCED_FACE('',(#362),#368,.F.);
#362 = FACE_BOUND('',#363,.F.);
#363 = EDGE_LOOP('',(#364,#365,#366,#367));
#364 = ORIENTED_EDGE('',*,*,#88,.F.);
#365 = ORIENTED_EDGE('',*,*,#349,.T.);
#366 = ORIENTED_EDGE('',*,*,#231,.T.);
#367 = ORIENTED_EDGE('',*,*,#332,.F.);
#368 = PLANE('',#369);
#369 = AXIS2_PLACEMENT_3D('',#370,#371,#372);
#370 = CARTESIAN_POINT('',(-7.5,1.665334536938E-15,7.5));
#371 = DIRECTION('',(1.,0.,0.));
#372 = DIRECTION('',(0.,-2.22044604925E-16,-1.));
#373 = ADVANCED_FACE('',(#374),#390,.F.);
#374 = FACE_BOUND('',#375,.F.);
#375 = EDGE_LOOP('',(#376,#377,#383,#384));
#376 = ORIENTED_EDGE('',*,*,#267,.F.);
#377 = ORIENTED_EDGE('',*,*,#378,.T.);
#378 = EDGE_CURVE('',#260,#125,#379,.T.);
#379 = LINE('',#380,#381);
#380 = CARTESIAN_POINT('',(5.5,-25.,-5.5));
#381 = VECTOR('',#382,1.);
#382 = DIRECTION('',(0.,1.,-2.22044604925E-16));
#383 = ORIENTED_EDGE('',*,*,#122,.F.);
#384 = ORIENTED_EDGE('',*,*,#385,.F.);
#385 = EDGE_CURVE('',#268,#123,#386,.T.);
#386 = LINE('',#387,#388);
#387 = CARTESIAN_POINT('',(5.5,-25.,5.5));
#388 = VECTOR('',#389,1.);
#389 = DIRECTION('',(0.,1.,-2.22044604925E-16));
#390 = PLANE('',#391);
#391 = AXIS2_PLACEMENT_3D('',#392,#393,#394);
#392 = CARTESIAN_POINT('',(5.5,-25.,-5.5));
#393 = DIRECTION('',(1.,0.,0.));
#394 = DIRECTION('',(0.,2.22044604925E-16,1.));
#395 = ADVANCED_FACE('',(#396),#407,.F.);
#396 = FACE_BOUND('',#397,.F.);
#397 = EDGE_LOOP('',(#398,#399,#405,#406));
#398 = ORIENTED_EDGE('',*,*,#257,.F.);
#399 = ORIENTED_EDGE('',*,*,#400,.T.);
#400 = EDGE_CURVE('',#258,#141,#401,.T.);
#401 = LINE('',#402,#403);
#402 = CARTESIAN_POINT('',(-5.5,-25.,-5.5));
#403 = VECTOR('',#404,1.);
#404 = DIRECTION('',(0.,1.,-2.22044604925E-16));
#405 = ORIENTED_EDGE('',*,*,#148,.F.);
#406 = ORIENTED_EDGE('',*,*,#378,.F.);
#407 = PLANE('',#408);
#408 = AXIS2_PLACEMENT_3D('',#409,#410,#411);
#409 = CARTESIAN_POINT('',(-5.5,-25.,-5.5));
#410 = DIRECTION('',(0.,-2.22044604925E-16,-1.));
#411 = DIRECTION('',(1.,0.,0.));
#412 = ADVANCED_FACE('',(#413),#424,.F.);
#413 = FACE_BOUND('',#414,.F.);
#414 = EDGE_LOOP('',(#415,#416,#422,#423));
#415 = ORIENTED_EDGE('',*,*,#283,.F.);
#416 = ORIENTED_EDGE('',*,*,#417,.T.);
#417 = EDGE_CURVE('',#276,#133,#418,.T.);
#418 = LINE('',#419,#420);
#419 = CARTESIAN_POINT('',(-5.5,-25.,5.5));
#420 = VECTOR('',#421,1.);
#421 = DIRECTION('',(0.,1.,-2.22044604925E-16));
#422 = ORIENTED_EDGE('',*,*,#140,.F.);
#423 = ORIENTED_EDGE('',*,*,#400,.F.);
#424 = PLANE('',#425);
#425 = AXIS2_PLACEMENT_3D('',#426,#427,#428);
#426 = CARTESIAN_POINT('',(-5.5,-25.,5.5));
#427 = DIRECTION('',(-1.,0.,0.));
#428 = DIRECTION('',(0.,-2.22044604925E-16,-1.));
#429 = ADVANCED_FACE('',(#430),#436,.F.);
#430 = FACE_BOUND('',#431,.F.);
#431 = EDGE_LOOP('',(#432,#433,#434,#435));
#432 = ORIENTED_EDGE('',*,*,#275,.F.);
#433 = ORIENTED_EDGE('',*,*,#385,.T.);
#434 = ORIENTED_EDGE('',*,*,#132,.F.);
#435 = ORIENTED_EDGE('',*,*,#417,.F.);
#436 = PLANE('',#437);
#437 = AXIS2_PLACEMENT_3D('',#438,#439,#440);
#438 = CARTESIAN_POINT('',(5.5,-25.,5.5));
#439 = DIRECTION('',(0.,2.22044604925E-16,1.));
#440 = DIRECTION('',(-1.,0.,0.));
#441 = ( GEOMETRIC_REPRESENTATION_CONTEXT(3) 
GLOBAL_UNCERTAINTY_ASSIGNED_CONTEXT((#445)) GLOBAL_UNIT_ASSIGNED_CONTEXT
((#442,#443,#444)) REPRESENTATION_CONTEXT('Context #1',
  '3D Context with UNIT and UNCERTAINTY') );
#442 = ( LENGTH_UNIT() NAMED_UNIT(*) SI_UNIT(.MILLI.,.METRE.) );
#443 = ( NAMED_UNIT(*) PLANE_ANGLE_UNIT() SI_UNIT($,.RADIAN.) );
#444 = ( NAMED_UNIT(*) SI_UNIT($,.STERADIAN.) SOLID_ANGLE_UNIT() );
#445 = UNCERTAINTY_MEASURE_WITH_UNIT(LENGTH_MEASURE(5.E-06),#442,
  'distance_accuracy_value','confusion accuracy');
#446 = PRODUCT_RELATED_PRODUCT_CATEGORY('part',$,(#7));
#447 = MECHANICAL_DESIGN_GEOMETRIC_PRESENTATION_REPRESENTATION('',(#448)
  ,#441);
#448 = STYLED_ITEM('color',(#449),#15);
#449 = PRESENTATION_STYLE_ASSIGNMENT((#450,#456));
#450 = SURFACE_STYLE_USAGE(.BOTH.,#451);
#451 = SURFACE_SIDE_STYLE('',(#452));
#452 = SURFACE_STYLE_FILL_AREA(#453);
#453 = FILL_AREA_STYLE('',(#454));
#454 = FILL_AREA_STYLE_COLOUR('',#455);
#455 = COLOUR_RGB('',0.447058818107,0.474509808674,0.501960817233);
#456 = CURVE_STYLE('',#457,POSITIVE_LENGTH_MEASURE(0.1),#458);
#457 = DRAUGHTING_PRE_DEFINED_CURVE_FONT('continuous');
#458 = COLOUR_RGB('',9.803921802644E-02,9.803921802644E-02,
  9.803921802644E-02);
ENDSEC;
END-ISO-10303-21;
