ISO-10303-21;
HEADER;
FILE_DESCRIPTION(('FreeCAD Model'),'2;1');
FILE_NAME('Open CASCADE Shape Model','2026-04-16T17:16:25',('Author'),(
    ''),'Open CASCADE STEP processor 7.9','FreeCAD','Unknown');
FILE_SCHEMA(('AUTOMOTIVE_DESIGN { 1 0 10303 214 1 1 1 1 }'));
ENDSEC;
DATA;
#1 = APPLICATION_PROTOCOL_DEFINITION('international standard',
  'automotive_design',2000,#2);
#2 = APPLICATION_CONTEXT(
  'core data for automotive mechanical design processes');
#3 = SHAPE_DEFINITION_REPRESENTATION(#4,#10);
#4 = PRODUCT_DEFINITION_SHAPE('','',#5);
#5 = PRODUCT_DEFINITION('design','',#6,#9);
#6 = PRODUCT_DEFINITION_FORMATION('','',#7);
#7 = PRODUCT('key001','key001','',(#8));
#8 = PRODUCT_CONTEXT('',#2,'mechanical');
#9 = PRODUCT_DEFINITION_CONTEXT('part definition',#2,'design');
#10 = ADVANCED_BREP_SHAPE_REPRESENTATION('',(#11,#15),#447);
#11 = AXIS2_PLACEMENT_3D('',#12,#13,#14);
#12 = CARTESIAN_POINT('',(0.,0.,0.));
#13 = DIRECTION('',(0.,0.,1.));
#14 = DIRECTION('',(1.,0.,-0.));
#15 = MANIFOLD_SOLID_BREP('',#16);
#16 = CLOSED_SHELL('',(#17,#59,#90,#121,#173,#259,#276,#293,#310,#327,
    #339,#370,#394,#418,#435));
#17 = ADVANCED_FACE('',(#18),#54,.T.);
#18 = FACE_BOUND('',#19,.F.);
#19 = EDGE_LOOP('',(#20,#30,#39,#47));
#20 = ORIENTED_EDGE('',*,*,#21,.T.);
#21 = EDGE_CURVE('',#22,#24,#26,.T.);
#22 = VERTEX_POINT('',#23);
#23 = CARTESIAN_POINT('',(-4.75,2.109423746788E-15,9.5));
#24 = VERTEX_POINT('',#25);
#25 = CARTESIAN_POINT('',(-4.75,-2.,9.5));
#26 = LINE('',#27,#28);
#27 = CARTESIAN_POINT('',(-4.75,2.109423746788E-15,9.5));
#28 = VECTOR('',#29,1.);
#29 = DIRECTION('',(0.,-1.,2.22044604925E-16));
#30 = ORIENTED_EDGE('',*,*,#31,.T.);
#31 = EDGE_CURVE('',#24,#32,#34,.T.);
#32 = VERTEX_POINT('',#33);
#33 = CARTESIAN_POINT('',(-9.5,-2.,4.75));
#34 = CIRCLE('',#35,4.75);
#35 = AXIS2_PLACEMENT_3D('',#36,#37,#38);
#36 = CARTESIAN_POINT('',(-4.75,-2.,4.75));
#37 = DIRECTION('',(0.,-1.,2.22044604925E-16));
#38 = DIRECTION('',(1.,0.,0.));
#39 = ORIENTED_EDGE('',*,*,#40,.F.);
#40 = EDGE_CURVE('',#41,#32,#43,.T.);
#41 = VERTEX_POINT('',#42);
#42 = CARTESIAN_POINT('',(-9.5,1.054711873394E-15,4.75));
#43 = LINE('',#44,#45);
#44 = CARTESIAN_POINT('',(-9.5,1.054711873394E-15,4.75));
#45 = VECTOR('',#46,1.);
#46 = DIRECTION('',(0.,-1.,2.22044604925E-16));
#47 = ORIENTED_EDGE('',*,*,#48,.F.);
#48 = EDGE_CURVE('',#22,#41,#49,.T.);
#49 = CIRCLE('',#50,4.75);
#50 = AXIS2_PLACEMENT_3D('',#51,#52,#53);
#51 = CARTESIAN_POINT('',(-4.75,1.054711873394E-15,4.75));
#52 = DIRECTION('',(0.,-1.,2.22044604925E-16));
#53 = DIRECTION('',(1.,0.,0.));
#54 = CYLINDRICAL_SURFACE('',#55,4.75);
#55 = AXIS2_PLACEMENT_3D('',#56,#57,#58);
#56 = CARTESIAN_POINT('',(-4.75,1.054711873394E-15,4.75));
#57 = DIRECTION('',(0.,1.,-2.22044604925E-16));
#58 = DIRECTION('',(1.,0.,0.));
#59 = ADVANCED_FACE('',(#60),#85,.T.);
#60 = FACE_BOUND('',#61,.T.);
#61 = EDGE_LOOP('',(#62,#63,#71,#79));
#62 = ORIENTED_EDGE('',*,*,#21,.T.);
#63 = ORIENTED_EDGE('',*,*,#64,.T.);
#64 = EDGE_CURVE('',#24,#65,#67,.T.);
#65 = VERTEX_POINT('',#66);
#66 = CARTESIAN_POINT('',(4.75,-2.,9.5));
#67 = LINE('',#68,#69);
#68 = CARTESIAN_POINT('',(-3.199552269362E-16,-2.,9.5));
#69 = VECTOR('',#70,1.);
#70 = DIRECTION('',(1.,0.,0.));
#71 = ORIENTED_EDGE('',*,*,#72,.F.);
#72 = EDGE_CURVE('',#73,#65,#75,.T.);
#73 = VERTEX_POINT('',#74);
#74 = CARTESIAN_POINT('',(4.75,2.109423746788E-15,9.5));
#75 = LINE('',#76,#77);
#76 = CARTESIAN_POINT('',(4.75,2.109423746788E-15,9.5));
#77 = VECTOR('',#78,1.);
#78 = DIRECTION('',(0.,-1.,2.22044604925E-16));
#79 = ORIENTED_EDGE('',*,*,#80,.T.);
#80 = EDGE_CURVE('',#73,#22,#81,.T.);
#81 = LINE('',#82,#83);
#82 = CARTESIAN_POINT('',(-3.199552269362E-16,2.109423746788E-15,9.5));
#83 = VECTOR('',#84,1.);
#84 = DIRECTION('',(-1.,0.,0.));
#85 = PLANE('',#86);
#86 = AXIS2_PLACEMENT_3D('',#87,#88,#89);
#87 = CARTESIAN_POINT('',(-4.633974363653E-16,-1.,9.5));
#88 = DIRECTION('',(0.,0.,1.));
#89 = DIRECTION('',(1.,0.,0.));
#90 = ADVANCED_FACE('',(#91),#116,.T.);
#91 = FACE_BOUND('',#92,.T.);
#92 = EDGE_LOOP('',(#93,#103,#109,#110));
#93 = ORIENTED_EDGE('',*,*,#94,.T.);
#94 = EDGE_CURVE('',#95,#97,#99,.T.);
#95 = VERTEX_POINT('',#96);
#96 = CARTESIAN_POINT('',(-9.5,-1.054711873394E-15,-4.75));
#97 = VERTEX_POINT('',#98);
#98 = CARTESIAN_POINT('',(-9.5,-2.,-4.75));
#99 = LINE('',#100,#101);
#100 = CARTESIAN_POINT('',(-9.5,-1.054711873394E-15,-4.75));
#101 = VECTOR('',#102,1.);
#102 = DIRECTION('',(0.,-1.,2.22044604925E-16));
#103 = ORIENTED_EDGE('',*,*,#104,.F.);
#104 = EDGE_CURVE('',#32,#97,#105,.T.);
#105 = LINE('',#106,#107);
#106 = CARTESIAN_POINT('',(-9.5,-2.,4.75));
#107 = VECTOR('',#108,1.);
#108 = DIRECTION('',(0.,-2.22044604925E-16,-1.));
#109 = ORIENTED_EDGE('',*,*,#40,.F.);
#110 = ORIENTED_EDGE('',*,*,#111,.T.);
#111 = EDGE_CURVE('',#41,#95,#112,.T.);
#112 = LINE('',#113,#114);
#113 = CARTESIAN_POINT('',(-9.5,3.179503010941E-32,1.43192085753E-16));
#114 = VECTOR('',#115,1.);
#115 = DIRECTION('',(0.,-2.22044604925E-16,-1.));
#116 = PLANE('',#117);
#117 = AXIS2_PLACEMENT_3D('',#118,#119,#120);
#118 = CARTESIAN_POINT('',(-9.5,-1.,7.723290606088E-17));
#119 = DIRECTION('',(-1.,-0.,-0.));
#120 = DIRECTION('',(0.,0.,-1.));
#121 = ADVANCED_FACE('',(#122),#168,.T.);
#122 = FACE_BOUND('',#123,.T.);
#123 = EDGE_LOOP('',(#124,#125,#126,#135,#143,#152,#160,#167));
#124 = ORIENTED_EDGE('',*,*,#48,.F.);
#125 = ORIENTED_EDGE('',*,*,#80,.F.);
#126 = ORIENTED_EDGE('',*,*,#127,.F.);
#127 = EDGE_CURVE('',#128,#73,#130,.T.);
#128 = VERTEX_POINT('',#129);
#129 = CARTESIAN_POINT('',(9.5,1.054711873394E-15,4.75));
#130 = CIRCLE('',#131,4.75);
#131 = AXIS2_PLACEMENT_3D('',#132,#133,#134);
#132 = CARTESIAN_POINT('',(4.75,1.054711873394E-15,4.75));
#133 = DIRECTION('',(0.,-1.,2.22044604925E-16));
#134 = DIRECTION('',(1.,0.,0.));
#135 = ORIENTED_EDGE('',*,*,#136,.T.);
#136 = EDGE_CURVE('',#128,#137,#139,.T.);
#137 = VERTEX_POINT('',#138);
#138 = CARTESIAN_POINT('',(9.5,-1.054711873394E-15,-4.75));
#139 = LINE('',#140,#141);
#140 = CARTESIAN_POINT('',(9.5,1.054711873394E-15,4.75));
#141 = VECTOR('',#142,1.);
#142 = DIRECTION('',(0.,-2.22044604925E-16,-1.));
#143 = ORIENTED_EDGE('',*,*,#144,.F.);
#144 = EDGE_CURVE('',#145,#137,#147,.T.);
#145 = VERTEX_POINT('',#146);
#146 = CARTESIAN_POINT('',(4.75,-2.109423746788E-15,-9.5));
#147 = CIRCLE('',#148,4.75);
#148 = AXIS2_PLACEMENT_3D('',#149,#150,#151);
#149 = CARTESIAN_POINT('',(4.75,-1.054711873394E-15,-4.75));
#150 = DIRECTION('',(0.,-1.,2.22044604925E-16));
#151 = DIRECTION('',(1.,0.,0.));
#152 = ORIENTED_EDGE('',*,*,#153,.F.);
#153 = EDGE_CURVE('',#154,#145,#156,.T.);
#154 = VERTEX_POINT('',#155);
#155 = CARTESIAN_POINT('',(-4.75,-2.109423746788E-15,-9.5));
#156 = LINE('',#157,#158);
#157 = CARTESIAN_POINT('',(-4.75,-2.109423746788E-15,-9.5));
#158 = VECTOR('',#159,1.);
#159 = DIRECTION('',(1.,0.,0.));
#160 = ORIENTED_EDGE('',*,*,#161,.F.);
#161 = EDGE_CURVE('',#95,#154,#162,.T.);
#162 = CIRCLE('',#163,4.75);
#163 = AXIS2_PLACEMENT_3D('',#164,#165,#166);
#164 = CARTESIAN_POINT('',(-4.75,-1.054711873394E-15,-4.75));
#165 = DIRECTION('',(0.,-1.,2.22044604925E-16));
#166 = DIRECTION('',(1.,0.,0.));
#167 = ORIENTED_EDGE('',*,*,#111,.F.);
#168 = PLANE('',#169);
#169 = AXIS2_PLACEMENT_3D('',#170,#171,#172);
#170 = CARTESIAN_POINT('',(-4.210288596258E-16,8.180128844795E-32,
    3.684002521726E-16));
#171 = DIRECTION('',(0.,1.,0.));
#172 = DIRECTION('',(0.,0.,1.));
#173 = ADVANCED_FACE('',(#174,#220),#254,.F.);
#174 = FACE_BOUND('',#175,.F.);
#175 = EDGE_LOOP('',(#176,#177,#178,#187,#195,#204,#212,#219));
#176 = ORIENTED_EDGE('',*,*,#31,.F.);
#177 = ORIENTED_EDGE('',*,*,#64,.T.);
#178 = ORIENTED_EDGE('',*,*,#179,.F.);
#179 = EDGE_CURVE('',#180,#65,#182,.T.);
#180 = VERTEX_POINT('',#181);
#181 = CARTESIAN_POINT('',(9.5,-2.,4.75));
#182 = CIRCLE('',#183,4.75);
#183 = AXIS2_PLACEMENT_3D('',#184,#185,#186);
#184 = CARTESIAN_POINT('',(4.75,-2.,4.75));
#185 = DIRECTION('',(0.,-1.,2.22044604925E-16));
#186 = DIRECTION('',(1.,0.,0.));
#187 = ORIENTED_EDGE('',*,*,#188,.T.);
#188 = EDGE_CURVE('',#180,#189,#191,.T.);
#189 = VERTEX_POINT('',#190);
#190 = CARTESIAN_POINT('',(9.5,-2.,-4.75));
#191 = LINE('',#192,#193);
#192 = CARTESIAN_POINT('',(9.5,-2.,1.373726496751E-15));
#193 = VECTOR('',#194,1.);
#194 = DIRECTION('',(0.,-2.22044604925E-16,-1.));
#195 = ORIENTED_EDGE('',*,*,#196,.F.);
#196 = EDGE_CURVE('',#197,#189,#199,.T.);
#197 = VERTEX_POINT('',#198);
#198 = CARTESIAN_POINT('',(4.75,-2.,-9.5));
#199 = CIRCLE('',#200,4.75);
#200 = AXIS2_PLACEMENT_3D('',#201,#202,#203);
#201 = CARTESIAN_POINT('',(4.75,-2.,-4.75));
#202 = DIRECTION('',(0.,-1.,2.22044604925E-16));
#203 = DIRECTION('',(1.,0.,0.));
#204 = ORIENTED_EDGE('',*,*,#205,.F.);
#205 = EDGE_CURVE('',#206,#197,#208,.T.);
#206 = VERTEX_POINT('',#207);
#207 = CARTESIAN_POINT('',(-4.75,-2.,-9.5));
#208 = LINE('',#209,#210);
#209 = CARTESIAN_POINT('',(-4.75,-2.,-9.5));
#210 = VECTOR('',#211,1.);
#211 = DIRECTION('',(1.,0.,0.));
#212 = ORIENTED_EDGE('',*,*,#213,.F.);
#213 = EDGE_CURVE('',#97,#206,#214,.T.);
#214 = CIRCLE('',#215,4.75);
#215 = AXIS2_PLACEMENT_3D('',#216,#217,#218);
#216 = CARTESIAN_POINT('',(-4.75,-2.,-4.75));
#217 = DIRECTION('',(0.,-1.,2.22044604925E-16));
#218 = DIRECTION('',(1.,0.,0.));
#219 = ORIENTED_EDGE('',*,*,#104,.F.);
#220 = FACE_BOUND('',#221,.F.);
#221 = EDGE_LOOP('',(#222,#232,#240,#248));
#222 = ORIENTED_EDGE('',*,*,#223,.T.);
#223 = EDGE_CURVE('',#224,#226,#228,.T.);
#224 = VERTEX_POINT('',#225);
#225 = CARTESIAN_POINT('',(-4.999999999998,-2.,-5.));
#226 = VERTEX_POINT('',#227);
#227 = CARTESIAN_POINT('',(5.,-2.,-5.));
#228 = LINE('',#229,#230);
#229 = CARTESIAN_POINT('',(-4.999999999998,-2.,-5.));
#230 = VECTOR('',#231,1.);
#231 = DIRECTION('',(1.,0.,0.));
#232 = ORIENTED_EDGE('',*,*,#233,.T.);
#233 = EDGE_CURVE('',#226,#234,#236,.T.);
#234 = VERTEX_POINT('',#235);
#235 = CARTESIAN_POINT('',(5.,-2.,5.));
#236 = LINE('',#237,#238);
#237 = CARTESIAN_POINT('',(5.,-2.,-5.));
#238 = VECTOR('',#239,1.);
#239 = DIRECTION('',(0.,2.22044604925E-16,1.));
#240 = ORIENTED_EDGE('',*,*,#241,.T.);
#241 = EDGE_CURVE('',#234,#242,#244,.T.);
#242 = VERTEX_POINT('',#243);
#243 = CARTESIAN_POINT('',(-4.999999999998,-2.,5.));
#244 = LINE('',#245,#246);
#245 = CARTESIAN_POINT('',(5.,-2.,5.));
#246 = VECTOR('',#247,1.);
#247 = DIRECTION('',(-1.,0.,0.));
#248 = ORIENTED_EDGE('',*,*,#249,.T.);
#249 = EDGE_CURVE('',#242,#224,#250,.T.);
#250 = LINE('',#251,#252);
#251 = CARTESIAN_POINT('',(-4.999999999998,-2.,5.));
#252 = VECTOR('',#253,1.);
#253 = DIRECTION('',(0.,-2.22044604925E-16,-1.));
#254 = PLANE('',#255);
#255 = AXIS2_PLACEMENT_3D('',#256,#257,#258);
#256 = CARTESIAN_POINT('',(-4.210288596258E-16,-2.,8.124894620227E-16));
#257 = DIRECTION('',(0.,1.,0.));
#258 = DIRECTION('',(0.,0.,1.));
#259 = ADVANCED_FACE('',(#260),#271,.T.);
#260 = FACE_BOUND('',#261,.F.);
#261 = EDGE_LOOP('',(#262,#268,#269,#270));
#262 = ORIENTED_EDGE('',*,*,#263,.T.);
#263 = EDGE_CURVE('',#128,#180,#264,.T.);
#264 = LINE('',#265,#266);
#265 = CARTESIAN_POINT('',(9.5,1.054711873394E-15,4.75));
#266 = VECTOR('',#267,1.);
#267 = DIRECTION('',(0.,-1.,2.22044604925E-16));
#268 = ORIENTED_EDGE('',*,*,#179,.T.);
#269 = ORIENTED_EDGE('',*,*,#72,.F.);
#270 = ORIENTED_EDGE('',*,*,#127,.F.);
#271 = CYLINDRICAL_SURFACE('',#272,4.75);
#272 = AXIS2_PLACEMENT_3D('',#273,#274,#275);
#273 = CARTESIAN_POINT('',(4.75,1.054711873394E-15,4.75));
#274 = DIRECTION('',(0.,1.,-2.22044604925E-16));
#275 = DIRECTION('',(1.,0.,0.));
#276 = ADVANCED_FACE('',(#277),#288,.T.);
#277 = FACE_BOUND('',#278,.F.);
#278 = EDGE_LOOP('',(#279,#280,#281,#287));
#279 = ORIENTED_EDGE('',*,*,#94,.T.);
#280 = ORIENTED_EDGE('',*,*,#213,.T.);
#281 = ORIENTED_EDGE('',*,*,#282,.F.);
#282 = EDGE_CURVE('',#154,#206,#283,.T.);
#283 = LINE('',#284,#285);
#284 = CARTESIAN_POINT('',(-4.75,-2.109423746788E-15,-9.5));
#285 = VECTOR('',#286,1.);
#286 = DIRECTION('',(0.,-1.,2.22044604925E-16));
#287 = ORIENTED_EDGE('',*,*,#161,.F.);
#288 = CYLINDRICAL_SURFACE('',#289,4.75);
#289 = AXIS2_PLACEMENT_3D('',#290,#291,#292);
#290 = CARTESIAN_POINT('',(-4.75,-1.054711873394E-15,-4.75));
#291 = DIRECTION('',(0.,1.,-2.22044604925E-16));
#292 = DIRECTION('',(1.,0.,0.));
#293 = ADVANCED_FACE('',(#294),#305,.T.);
#294 = FACE_BOUND('',#295,.T.);
#295 = EDGE_LOOP('',(#296,#297,#298,#304));
#296 = ORIENTED_EDGE('',*,*,#263,.T.);
#297 = ORIENTED_EDGE('',*,*,#188,.T.);
#298 = ORIENTED_EDGE('',*,*,#299,.F.);
#299 = EDGE_CURVE('',#137,#189,#300,.T.);
#300 = LINE('',#301,#302);
#301 = CARTESIAN_POINT('',(9.5,-1.054711873394E-15,-4.75));
#302 = VECTOR('',#303,1.);
#303 = DIRECTION('',(0.,-1.,2.22044604925E-16));
#304 = ORIENTED_EDGE('',*,*,#136,.F.);
#305 = PLANE('',#306);
#306 = AXIS2_PLACEMENT_3D('',#307,#308,#309);
#307 = CARTESIAN_POINT('',(9.5,-1.,9.17140759473E-17));
#308 = DIRECTION('',(1.,0.,0.));
#309 = DIRECTION('',(0.,0.,1.));
#310 = ADVANCED_FACE('',(#311),#322,.T.);
#311 = FACE_BOUND('',#312,.F.);
#312 = EDGE_LOOP('',(#313,#319,#320,#321));
#313 = ORIENTED_EDGE('',*,*,#314,.T.);
#314 = EDGE_CURVE('',#145,#197,#315,.T.);
#315 = LINE('',#316,#317);
#316 = CARTESIAN_POINT('',(4.75,-2.109423746788E-15,-9.5));
#317 = VECTOR('',#318,1.);
#318 = DIRECTION('',(0.,-1.,2.22044604925E-16));
#319 = ORIENTED_EDGE('',*,*,#196,.T.);
#320 = ORIENTED_EDGE('',*,*,#299,.F.);
#321 = ORIENTED_EDGE('',*,*,#144,.F.);
#322 = CYLINDRICAL_SURFACE('',#323,4.75);
#323 = AXIS2_PLACEMENT_3D('',#324,#325,#326);
#324 = CARTESIAN_POINT('',(4.75,-1.054711873394E-15,-4.75));
#325 = DIRECTION('',(0.,1.,-2.22044604925E-16));
#326 = DIRECTION('',(1.,0.,0.));
#327 = ADVANCED_FACE('',(#328),#334,.F.);
#328 = FACE_BOUND('',#329,.F.);
#329 = EDGE_LOOP('',(#330,#331,#332,#333));
#330 = ORIENTED_EDGE('',*,*,#282,.T.);
#331 = ORIENTED_EDGE('',*,*,#205,.T.);
#332 = ORIENTED_EDGE('',*,*,#314,.F.);
#333 = ORIENTED_EDGE('',*,*,#153,.F.);
#334 = PLANE('',#335);
#335 = AXIS2_PLACEMENT_3D('',#336,#337,#338);
#336 = CARTESIAN_POINT('',(-4.75,-2.109423746788E-15,-9.5));
#337 = DIRECTION('',(0.,2.22044604925E-16,1.));
#338 = DIRECTION('',(1.,0.,0.));
#339 = ADVANCED_FACE('',(#340),#365,.F.);
#340 = FACE_BOUND('',#341,.F.);
#341 = EDGE_LOOP('',(#342,#350,#358,#364));
#342 = ORIENTED_EDGE('',*,*,#343,.T.);
#343 = EDGE_CURVE('',#224,#344,#346,.T.);
#344 = VERTEX_POINT('',#345);
#345 = CARTESIAN_POINT('',(-4.999999999998,-12.,-5.));
#346 = LINE('',#347,#348);
#347 = CARTESIAN_POINT('',(-4.999999999998,-2.,-5.));
#348 = VECTOR('',#349,1.);
#349 = DIRECTION('',(0.,-1.,2.22044604925E-16));
#350 = ORIENTED_EDGE('',*,*,#351,.T.);
#351 = EDGE_CURVE('',#344,#352,#354,.T.);
#352 = VERTEX_POINT('',#353);
#353 = CARTESIAN_POINT('',(5.,-12.,-5.));
#354 = LINE('',#355,#356);
#355 = CARTESIAN_POINT('',(-4.999999999998,-12.,-5.));
#356 = VECTOR('',#357,1.);
#357 = DIRECTION('',(1.,0.,0.));
#358 = ORIENTED_EDGE('',*,*,#359,.F.);
#359 = EDGE_CURVE('',#226,#352,#360,.T.);
#360 = LINE('',#361,#362);
#361 = CARTESIAN_POINT('',(5.,-2.,-5.));
#362 = VECTOR('',#363,1.);
#363 = DIRECTION('',(0.,-1.,2.22044604925E-16));
#364 = ORIENTED_EDGE('',*,*,#223,.F.);
#365 = PLANE('',#366);
#366 = AXIS2_PLACEMENT_3D('',#367,#368,#369);
#367 = CARTESIAN_POINT('',(-4.999999999998,-2.,-5.));
#368 = DIRECTION('',(0.,2.22044604925E-16,1.));
#369 = DIRECTION('',(1.,0.,0.));
#370 = ADVANCED_FACE('',(#371),#389,.F.);
#371 = FACE_BOUND('',#372,.F.);
#372 = EDGE_LOOP('',(#373,#381,#387,#388));
#373 = ORIENTED_EDGE('',*,*,#374,.T.);
#374 = EDGE_CURVE('',#242,#375,#377,.T.);
#375 = VERTEX_POINT('',#376);
#376 = CARTESIAN_POINT('',(-4.999999999998,-12.,5.));
#377 = LINE('',#378,#379);
#378 = CARTESIAN_POINT('',(-4.999999999998,-2.,5.));
#379 = VECTOR('',#380,1.);
#380 = DIRECTION('',(0.,-1.,2.22044604925E-16));
#381 = ORIENTED_EDGE('',*,*,#382,.T.);
#382 = EDGE_CURVE('',#375,#344,#383,.T.);
#383 = LINE('',#384,#385);
#384 = CARTESIAN_POINT('',(-4.999999999998,-12.,5.));
#385 = VECTOR('',#386,1.);
#386 = DIRECTION('',(0.,-2.22044604925E-16,-1.));
#387 = ORIENTED_EDGE('',*,*,#343,.F.);
#388 = ORIENTED_EDGE('',*,*,#249,.F.);
#389 = PLANE('',#390);
#390 = AXIS2_PLACEMENT_3D('',#391,#392,#393);
#391 = CARTESIAN_POINT('',(-4.999999999998,-2.,5.));
#392 = DIRECTION('',(1.,0.,0.));
#393 = DIRECTION('',(0.,-2.22044604925E-16,-1.));
#394 = ADVANCED_FACE('',(#395),#413,.F.);
#395 = FACE_BOUND('',#396,.F.);
#396 = EDGE_LOOP('',(#397,#405,#411,#412));
#397 = ORIENTED_EDGE('',*,*,#398,.T.);
#398 = EDGE_CURVE('',#234,#399,#401,.T.);
#399 = VERTEX_POINT('',#400);
#400 = CARTESIAN_POINT('',(5.,-12.,5.));
#401 = LINE('',#402,#403);
#402 = CARTESIAN_POINT('',(5.,-2.,5.));
#403 = VECTOR('',#404,1.);
#404 = DIRECTION('',(0.,-1.,2.22044604925E-16));
#405 = ORIENTED_EDGE('',*,*,#406,.T.);
#406 = EDGE_CURVE('',#399,#375,#407,.T.);
#407 = LINE('',#408,#409);
#408 = CARTESIAN_POINT('',(5.,-12.,5.));
#409 = VECTOR('',#410,1.);
#410 = DIRECTION('',(-1.,0.,0.));
#411 = ORIENTED_EDGE('',*,*,#374,.F.);
#412 = ORIENTED_EDGE('',*,*,#241,.F.);
#413 = PLANE('',#414);
#414 = AXIS2_PLACEMENT_3D('',#415,#416,#417);
#415 = CARTESIAN_POINT('',(5.,-2.,5.));
#416 = DIRECTION('',(-0.,-2.22044604925E-16,-1.));
#417 = DIRECTION('',(-1.,0.,0.));
#418 = ADVANCED_FACE('',(#419),#430,.F.);
#419 = FACE_BOUND('',#420,.F.);
#420 = EDGE_LOOP('',(#421,#422,#428,#429));
#421 = ORIENTED_EDGE('',*,*,#359,.T.);
#422 = ORIENTED_EDGE('',*,*,#423,.T.);
#423 = EDGE_CURVE('',#352,#399,#424,.T.);
#424 = LINE('',#425,#426);
#425 = CARTESIAN_POINT('',(5.,-12.,-5.));
#426 = VECTOR('',#427,1.);
#427 = DIRECTION('',(0.,2.22044604925E-16,1.));
#428 = ORIENTED_EDGE('',*,*,#398,.F.);
#429 = ORIENTED_EDGE('',*,*,#233,.F.);
#430 = PLANE('',#431);
#431 = AXIS2_PLACEMENT_3D('',#432,#433,#434);
#432 = CARTESIAN_POINT('',(5.,-2.,-5.));
#433 = DIRECTION('',(-1.,0.,0.));
#434 = DIRECTION('',(0.,2.22044604925E-16,1.));
#435 = ADVANCED_FACE('',(#436),#442,.F.);
#436 = FACE_BOUND('',#437,.T.);
#437 = EDGE_LOOP('',(#438,#439,#440,#441));
#438 = ORIENTED_EDGE('',*,*,#423,.T.);
#439 = ORIENTED_EDGE('',*,*,#406,.T.);
#440 = ORIENTED_EDGE('',*,*,#382,.T.);
#441 = ORIENTED_EDGE('',*,*,#351,.T.);
#442 = PLANE('',#443);
#443 = AXIS2_PLACEMENT_3D('',#444,#445,#446);
#444 = CARTESIAN_POINT('',(6.905587213169E-13,-12.,2.146727240415E-13));
#445 = DIRECTION('',(0.,1.,0.));
#446 = DIRECTION('',(0.,0.,1.));
#447 = ( GEOMETRIC_REPRESENTATION_CONTEXT(3) 
GLOBAL_UNCERTAINTY_ASSIGNED_CONTEXT((#451)) GLOBAL_UNIT_ASSIGNED_CONTEXT
((#448,#449,#450)) REPRESENTATION_CONTEXT('Context #1',
  '3D Context with UNIT and UNCERTAINTY') );
#448 = ( LENGTH_UNIT() NAMED_UNIT(*) SI_UNIT(.MILLI.,.METRE.) );
#449 = ( NAMED_UNIT(*) PLANE_ANGLE_UNIT() SI_UNIT($,.RADIAN.) );
#450 = ( NAMED_UNIT(*) SI_UNIT($,.STERADIAN.) SOLID_ANGLE_UNIT() );
#451 = UNCERTAINTY_MEASURE_WITH_UNIT(LENGTH_MEASURE(1.E-07),#448,
  'distance_accuracy_value','confusion accuracy');
#452 = PRODUCT_RELATED_PRODUCT_CATEGORY('part',$,(#7));
#453 = MECHANICAL_DESIGN_GEOMETRIC_PRESENTATION_REPRESENTATION('',(#454)
  ,#447);
#454 = STYLED_ITEM('color',(#455),#15);
#455 = PRESENTATION_STYLE_ASSIGNMENT((#456,#462));
#456 = SURFACE_STYLE_USAGE(.BOTH.,#457);
#457 = SURFACE_SIDE_STYLE('',(#458));
#458 = SURFACE_STYLE_FILL_AREA(#459);
#459 = FILL_AREA_STYLE('',(#460));
#460 = FILL_AREA_STYLE_COLOUR('',#461);
#461 = COLOUR_RGB('',0.447058818107,0.474509808674,0.501960817233);
#462 = CURVE_STYLE('',#463,POSITIVE_LENGTH_MEASURE(0.1),#464);
#463 = DRAUGHTING_PRE_DEFINED_CURVE_FONT('continuous');
#464 = COLOUR_RGB('',9.803921802644E-02,9.803921802644E-02,
  9.803921802644E-02);
ENDSEC;
END-ISO-10303-21;
